<?xml version="1.0" encoding="utf-8"?><svg xml:space="preserve" viewBox="0 0 100 100" y="0" x="0" xmlns="http://www.w3.org/2000/svg" id="圖層_1" version="1.1" width="200px" height="200px" xmlns:xlink="http://www.w3.org/1999/xlink" style="width:100%;height:100%;background-size:initial;background-repeat-y:initial;background-repeat-x:initial;background-position-y:initial;background-position-x:initial;background-origin:initial;background-color:initial;background-clip:initial;background-attachment:initial;animation-play-state:paused" ><g class="ldl-scale" style="transform-origin:50% 50%;transform:rotate(0deg) scale(0.8, 0.8);animation-play-state:paused" ><path stroke-miterlimit="10" stroke-width="4" stroke="#333" fill="#f8b26a" d="M37.3 23.8c1.4 3.2 2.6 6.5 3.7 9.8 1.1 3.2 2 6.1 3 8.5 1 2.4 2 4.3 2.9 5.7.5.7 1 1.2 1.4 1.7.5.4 1 .9 1.5 1.3.6.4 1.2.8 1.9 1.1.7.3 1.4.7 2.1.8.7.2 1.4.5 2.2.5.7.1 1.4.2 2.1.2 1.5 0 3.4-.3 5.7-1.2 1.1-.4 2.3-.9 3.6-1.5.6-.3 1.3-.6 2-1 .7-.3 1.4-.7 2.1-1l.6-.3c5.2-2.5 11.3-.1 13.7 5.3 1.5 3.4 1.1 7.2-.6 10.1-.5.8-1.1 1.6-1.7 2.5-.6.8-1.2 1.6-1.9 2.4-1.3 1.6-2.8 3.1-4.5 4.6-3.4 2.9-7.6 5.6-12.7 7.2-5.1 1.6-10.5 1.9-15.7 1.1-5.4-.7-10.4-2.6-14.9-5.6-2.3-1.5-4.4-3.3-6.3-5.3-2-2.1-3.6-4.2-4.9-6.5-2.8-4.5-4.3-9-5.5-13.2-1.1-4.2-1.6-8.1-2-11.6-.3-3.5-.6-7-.6-10.5 0-6.8 5.3-12.3 11.8-12.3 4.9-.1 9.1 2.8 11 7.2h0z" style="stroke:rgb(8, 28, 21);fill:rgb(55, 74, 71);animation-play-state:paused" ></path>
<circle fill="#f47e60" r="2.2" cy="29.6" cx="25.8" style="fill:rgb(233, 236, 239);animation-play-state:paused" ></circle>
<circle fill="#f47e60" r="3.7" cy="39" cx="24.4" style="fill:rgb(233, 236, 239);animation-play-state:paused" ></circle>
<ellipse fill="#f47e60" ry="4.3" rx="6.6" cy="68.6" cx="66.6" transform="rotate(-28.451 66.59 68.624)" style="fill:rgb(233, 236, 239);animation-play-state:paused" ></ellipse>
<circle fill="#f47e60" r="4.9" cy="51.5" cx="33.9" style="fill:rgb(233, 236, 239);animation-play-state:paused" ></circle>
<circle fill="#f47e60" r="1.7" cy="59.4" cx="29.8" style="fill:rgb(233, 236, 239);animation-play-state:paused" ></circle>
<circle fill="#f47e60" r="2.2" cy="63" cx="41.9" style="fill:rgb(233, 236, 239);animation-play-state:paused" ></circle>
<path stroke-linecap="round" stroke-miterlimit="10" stroke-width="4" stroke="#333" fill="none" d="M35.9 21c1.6-2.2 3.9-4 6.4-5.1" style="stroke:rgb(8, 28, 21);animation-play-state:paused" ></path>
<path stroke-linecap="round" stroke-miterlimit="10" stroke-width="4" stroke="#333" fill="none" d="M38.5 26.9c2.4-.7 4.9-1.5 7.3-2.2" style="stroke:rgb(8, 28, 21);animation-play-state:paused" ></path>
<path stroke-linecap="round" stroke-miterlimit="10" stroke-width="4" stroke="#333" fill="none" d="M41.8 35.7c2-.9 4.2-1.4 6.4-1.6" style="stroke:rgb(8, 28, 21);animation-play-state:paused" ></path>
<path stroke-linecap="round" stroke-miterlimit="10" stroke-width="4" stroke="#333" fill="none" d="M46.6 46.3c1.8-1.8 3.7-3.3 5.9-4.6" style="stroke:rgb(8, 28, 21);animation-play-state:paused" ></path>
<path stroke-linecap="round" stroke-miterlimit="10" stroke-width="4" stroke="#333" fill="none" d="M55.7 52.7c.4-2.4 1.4-4.6 2.8-6.6" style="stroke:rgb(8, 28, 21);animation-play-state:paused" ></path>
<path stroke-linecap="round" stroke-miterlimit="10" stroke-width="4" stroke="#333" fill="none" d="M66.4 50.6c.4-2-.1-4.2-1.1-5.9" style="stroke:rgb(8, 28, 21);animation-play-state:paused" ></path>
<path stroke-linecap="round" stroke-miterlimit="10" stroke-width="4" stroke="#333" fill="none" d="M74.5 46.8c.3-2.9 1-5.7 2-8.5" style="stroke:rgb(8, 28, 21);animation-play-state:paused" ></path>
<path stroke-linecap="round" stroke-miterlimit="10" stroke-width="4" stroke="#333" fill="none" d="M81.8 47.5c.8-1.7 2.3-3.1 4.1-3.7" style="stroke:rgb(8, 28, 21);animation-play-state:paused" ></path>
<path stroke-linecap="round" stroke-miterlimit="10" stroke-width="4" stroke="#333" fill="none" d="M86.3 55.1c2.1-.1 4.1 0 6.2.4" style="stroke:rgb(8, 28, 21);animation-play-state:paused" ></path>
<path stroke-linecap="round" stroke-miterlimit="10" stroke-width="4" stroke="#333" fill="none" d="M85.4 62.6c1.5 1.4 3.2 2.7 4.9 3.8" style="stroke:rgb(8, 28, 21);animation-play-state:paused" ></path>
<path stroke-linecap="round" stroke-miterlimit="10" stroke-width="4" stroke="#333" fill="none" d="M80.8 69.8c1.2 1.4 2.4 2.7 3.5 4.1" style="stroke:rgb(8, 28, 21);animation-play-state:paused" ></path>
<path stroke-linecap="round" stroke-miterlimit="10" stroke-width="4" stroke="#333" fill="none" d="M75.4 75c1.2 1.8 2.2 3.8 2.9 5.9" style="stroke:rgb(8, 28, 21);animation-play-state:paused" ></path>
<path stroke-linecap="round" stroke-miterlimit="10" stroke-width="4" stroke="#333" fill="none" d="M67.8 79c1.1 2 1.8 4.2 2.2 6.4" style="stroke:rgb(8, 28, 21);animation-play-state:paused" ></path>
<path stroke-linecap="round" stroke-miterlimit="10" stroke-width="4" stroke="#333" fill="none" d="M60.5 81.6c.2 2.2.4 4.4.5 6.6" style="stroke:rgb(8, 28, 21);animation-play-state:paused" ></path>
<path stroke-linecap="round" stroke-miterlimit="10" stroke-width="4" stroke="#333" fill="none" d="M28.5 16.2c.8-2.1 1.6-4.3 2.4-6.4" style="stroke:rgb(8, 28, 21);animation-play-state:paused" ></path>
<path stroke-linecap="round" stroke-miterlimit="10" stroke-width="4" stroke="#333" fill="none" d="M21.3 17.2c-1.3-1.6-2.6-3.1-3.9-4.7" style="stroke:rgb(8, 28, 21);animation-play-state:paused" ></path>
<path stroke-linecap="round" stroke-miterlimit="10" stroke-width="4" stroke="#333" fill="none" d="M15.1 21.5c-1.9-.7-3.8-1.7-5.4-2.9" style="stroke:rgb(8, 28, 21);animation-play-state:paused" ></path>
<path stroke-linecap="round" stroke-miterlimit="10" stroke-width="4" stroke="#333" fill="none" d="M14.4 28.6c-2 0-4-.3-5.9-.7" style="stroke:rgb(8, 28, 21);animation-play-state:paused" ></path>
<path stroke-linecap="round" stroke-miterlimit="10" stroke-width="4" stroke="#333" fill="none" d="M14.1 35.7c-2.2 0-4.4-.4-6.4-1.3" style="stroke:rgb(8, 28, 21);animation-play-state:paused" ></path>
<path stroke-linecap="round" stroke-miterlimit="10" stroke-width="4" stroke="#333" fill="none" d="M15.3 43.6c-1.6.3-3.2.4-4.8.4-1.2 0-2.5-.2-3.1-1.3" style="stroke:rgb(8, 28, 21);animation-play-state:paused" ></path>
<path stroke-linecap="round" stroke-miterlimit="10" stroke-width="4" stroke="#333" fill="none" d="M17 50.2c-2.9.7-5.8 1.8-8.5 3.2" style="stroke:rgb(8, 28, 21);animation-play-state:paused" ></path>
<path stroke-linecap="round" stroke-miterlimit="10" stroke-width="4" stroke="#333" fill="none" d="M18.9 56.6c-2.9 1-5.6 2.7-7.8 4.9" style="stroke:rgb(8, 28, 21);animation-play-state:paused" ></path>
<path stroke-linecap="round" stroke-miterlimit="10" stroke-width="4" stroke="#333" fill="none" d="M21.9 63.3l-7.2 5.4" style="stroke:rgb(8, 28, 21);animation-play-state:paused" ></path>
<path stroke-linecap="round" stroke-miterlimit="10" stroke-width="4" stroke="#333" fill="none" d="M25.1 69.4c-2 2.1-3.9 4.3-5.8 6.5" style="stroke:rgb(8, 28, 21);animation-play-state:paused" ></path>
<path stroke-linecap="round" stroke-miterlimit="10" stroke-width="4" stroke="#333" fill="none" d="M32.4 75.9c-.9 2.8-2.3 5.4-4.3 7.5" style="stroke:rgb(8, 28, 21);animation-play-state:paused" ></path>
<path stroke-linecap="round" stroke-miterlimit="10" stroke-width="4" stroke="#333" fill="none" d="M40.3 79.8c-.8 2.9-1.9 5.7-3.2 8.4" style="stroke:rgb(8, 28, 21);animation-play-state:paused" ></path>
<path stroke-linecap="round" stroke-miterlimit="10" stroke-width="4" stroke="#333" fill="none" d="M49.4 83.3c.1 2.3 0 4.6-.4 6.9" style="stroke:rgb(8, 28, 21);animation-play-state:paused" ></path>
<metadata xmlns:d="https://loading.io/stock/" style="animation-play-state:paused" ><d:name style="animation-play-state:paused" >bacteria</d:name>
<d:tags style="animation-play-state:paused" >bacteria,disease,infection,contagious,pollution,virus</d:tags>
<d:license style="animation-play-state:paused" >by</d:license>
<d:slug style="animation-play-state:paused" >jssh9q</d:slug></metadata></g><!-- generated by https://loading.io/ --></svg>