<?xml version="1.0" encoding="UTF-8"?>
<svg width="752pt" height="752pt" version="1.1" viewBox="0 0 752 752" xmlns="http://www.w3.org/2000/svg">
 <defs>
  <clipPath id="a">
   <path d="m169 139.21h414v473.58h-414z"/>
  </clipPath>
 </defs>
 <path d="m322.53 414.2c0 4.2148-3.418 7.6367-7.6367 7.6367s-7.6406-3.4219-7.6406-7.6367c0-4.2188 3.4219-7.6406 7.6406-7.6406s7.6367 3.4219 7.6367 7.6406" fill="#052825"/>
 <path d="m314.89 368.36c10.961 0 21.789-1.7578 32.184-5.2227l8.4219-2.8086-4.832-14.492-8.4219 2.8086c-8.8359 2.9453-18.039 4.4375-27.352 4.4375s-18.516-1.4922-27.355-4.4375l-8.4219-2.8086-4.832 14.492 8.4219 2.8086c10.398 3.4648 21.227 5.2227 32.188 5.2227z" fill="#052825"/>
 <path d="m475.3 373.04-17.234 5.7461c-9.6602 3.2188-19.723 4.8516-29.906 4.8516-11.891 0-23.07-4.6289-31.48-13.039l-10.801 10.801c2.125 2.125 4.375 4.0664 6.7461 5.8242l1.2422 9.9531c-3.7617 4.8672-8.2539 9.0664-13.398 12.496l-4.4688 2.9766-4.4648-2.9766c-5.1445-3.4297-9.6367-7.625-13.398-12.492l1.2422-9.9531c2.3672-1.7578 4.6211-3.6992 6.7461-5.8242l-10.801-10.801c-8.4102 8.4023-19.59 13.035-31.48 13.035-10.184 0-20.246-1.6328-29.906-4.8516l-17.234-5.7461v31.609c0 20.52 15.5 37.48 35.406 39.809-3.0703 4.8945-4.8516 10.676-4.8516 16.871-0.003906 16.129 13.117 29.246 29.242 29.246 6.5547 0 12.777-2.1406 17.875-6.0938l3.7422 1.8711c5.5234 2.7617 11.707 4.2227 17.883 4.2227s12.359-1.4609 17.887-4.2227l3.7422-1.8711c5.0977 3.9531 11.32 6.0938 17.875 6.0938 16.125 0 29.242-13.117 29.242-29.242 0-6.1914-1.7812-11.973-4.8516-16.871 19.906-2.332 35.406-19.293 35.406-39.812zm-183.32 31.609v-10.457c10.336 3.1328 21.043 4.7227 31.863 4.7227 6.582 0 13.004-1.0547 19.066-3.0898l-1.4883 11.902c-1.5508 12.395-12.137 21.738-24.625 21.738-13.684 0-24.816-11.133-24.816-24.816zm123.52 70.648c-3.7305 0-7.2383-1.4531-9.875-4.0898l-5.2031-5.2031-13.367 6.6836c-3.418 1.707-7.2383 2.6094-11.059 2.6094-3.8164 0-7.6406-0.90234-11.055-2.6094l-13.367-6.6836-5.2031 5.2031c-2.6367 2.6367-6.1445 4.0898-9.875 4.0898-7.6992 0-13.965-6.2656-13.965-13.965 0-9.1445 7.4414-16.586 16.586-16.586h0.60938c2.5625 0 5.1289 0.60547 7.418 1.75l10.16 5.082 6.832-13.664-10.16-5.082c-2.0703-1.0352-4.2656-1.832-6.5117-2.3984 3.4453-4.0859 6.0898-8.8789 7.6914-14.152 2.4805 2.2031 5.1172 4.2422 7.9023 6.0977l12.938 8.6289 12.941-8.6289c2.7891-1.8594 5.4258-3.8945 7.9023-6.0977 1.6016 5.2812 4.2539 10.074 7.7031 14.164-2.2891 0.57031-4.5195 1.3828-6.6289 2.4375l-10.059 5.0273 6.832 13.664 10.059-5.0273c2.3594-1.1797 5-1.8008 7.6367-1.8008h0.49219c9.1445 0 16.586 7.4414 16.586 16.586 0.003906 7.6992-6.2617 13.965-13.961 13.965zm44.52-70.648c0 13.684-11.133 24.816-24.816 24.816-12.488 0-23.078-9.3438-24.625-21.738l-1.4883-11.902c6.0625 2.0312 12.484 3.0898 19.066 3.0898 10.824 0 21.527-1.5859 31.863-4.7227z" fill="#052825"/>
 <path d="m444.75 414.2c0 4.2148-3.418 7.6367-7.6367 7.6367s-7.6406-3.4219-7.6406-7.6367c0-4.2188 3.4219-7.6406 7.6406-7.6406s7.6367 3.4219 7.6367 7.6406" fill="#052825"/>
 <path d="m401.33 345.84-4.832 14.492 8.4219 2.8086c10.398 3.4648 21.227 5.2227 32.184 5.2227 10.961 0 21.789-1.7578 32.184-5.2227l8.4219-2.8086-4.832-14.492-8.4219 2.8086c-8.832 2.9453-18.035 4.4375-27.348 4.4375s-18.516-1.4922-27.355-4.4375z" fill="#052825"/>
 <path d="m376 337.81c21.059 0 38.191-17.133 38.191-38.191 0-21.059-17.133-38.191-38.191-38.191s-38.191 17.133-38.191 38.191c0 21.059 17.133 38.191 38.191 38.191zm0-61.105c12.637 0 22.914 10.281 22.914 22.914 0 12.637-10.281 22.914-22.914 22.914-12.637 0-22.914-10.281-22.914-22.914 0-12.633 10.281-22.914 22.914-22.914z" fill="#052825"/>
 <path d="m383.64 299.62c0 4.2188-3.4219 7.6367-7.6406 7.6367s-7.6367-3.418-7.6367-7.6367 3.418-7.6367 7.6367-7.6367 7.6406 3.418 7.6406 7.6367" fill="#052825"/>
 <g clip-path="url(#a)">
  <path d="m573.34 322.64c-25.508 4.25-48.934 15.98-67.488 33.555v-15.219l16.828-16.828c23.625-23.629 36.641-55.043 36.641-88.457 0-19.32-4.5664-38.668-13.207-55.949l-15.547-31.086c-2.9141-5.8242-8.7656-9.4414-15.277-9.4414-9.4141 0-17.078 7.6641-17.078 17.082v16.512c0 36.297-16.547 70.688-44.59 93.367-19.582-22.488-47.629-35.301-77.625-35.301s-58.043 12.809-77.621 35.297c-28.043-22.68-44.594-57.07-44.594-93.367v-16.508c0-9.418-7.6602-17.082-17.078-17.082-6.5117 0-12.363 3.6172-15.277 9.4414l-15.543 31.086c-8.6406 17.281-13.207 36.629-13.207 55.949 0 33.418 13.012 64.832 36.641 88.461l16.828 16.824v15.219c-18.559-17.574-41.984-29.305-67.488-33.555l-8.8945-1.4844v115.85c0 24.84 13.227 46.648 33.004 58.758-1.5703 5.2422-2.4531 11.246-2.4531 17.73 0 21.773 9.8516 38.191 22.914 38.191s22.914-16.418 22.914-38.191c0-2.7656-0.16016-5.4414-0.46484-8.0117 3.2422-0.33594 6.4609-0.89453 9.6289-1.6836l15.473-3.8672 4.4102 22.059c-6.6367 8.1562-14.125 15.617-22.301 22.156l-28.516 22.816h39.281c6.8672 0 13.594-0.76953 20.09-2.2266l3.4727 17.355c3.5547 17.789 19.305 30.703 37.445 30.703h102.67c18.141 0 33.891-12.91 37.449-30.703l3.4727-17.355c6.4961 1.457 13.223 2.2266 20.09 2.2266h39.281l-28.523-22.816c-8.1719-6.5391-15.664-14-22.301-22.156l4.4102-22.059 15.473 3.8672c5.457 1.3633 11.074 2.0547 16.699 2.0547 37.961 0 68.848-30.887 68.848-68.848l0.003906-115.85zm-59.852-149.84v-16.508c0-0.99609 0.80859-1.8047 1.8047-1.8047 0.6875 0 1.3047 0.38281 1.6133 0.99609l15.543 31.086c7.582 15.172 11.594 32.156 11.594 49.117 0 29.336-11.422 56.914-32.168 77.656l-15.691 15.691c-20.551-7.7578-34.574-26.758-36.031-48.578 33.477-25.5 53.336-65.434 53.336-107.66zm-273.37 140.54c-20.742-20.742-32.164-48.324-32.164-77.656 0-16.961 4.0078-33.945 11.594-49.113l15.543-31.086c0.30859-0.61719 0.92578-1 1.6133-1 0.99609 0 1.8047 0.80859 1.8047 1.8047v16.512c0 42.223 19.863 82.152 53.336 107.66-1.4531 21.82-15.48 40.82-36.031 48.578zm-16.887 223.06c-1.9023 0-7.6367-8.1289-7.6367-22.914 0-4.3164 0.49609-8.0469 1.2344-11.191 4.2969 1.4375 8.7773 2.4609 13.402 3.0234 0.39453 2.4453 0.64062 5.1602 0.64062 8.168-0.003906 14.789-5.7422 22.914-7.6406 22.914zm28.371-47.43c-3.2227 0.80469-6.5195 1.3047-9.8359 1.5039-4.0977-9.3359-10.742-15.18-18.535-15.18-5.0938 0-9.6953 2.5039-13.418 6.8438-14.883-9.5312-24.773-26.195-24.773-45.141v-97.449c22.902 5.7188 43.441 18.414 58.848 36.426-1.0039 3.668-2.3359 7.2461-3.9922 10.668-8.332-8.0625-18.355-14.168-29.523-17.891l-10.059-3.3555v69.902c0 13.449 7.4727 25.535 19.5 31.551l6.832-13.664c-6.8164-3.4102-11.055-10.262-11.055-17.887v-47.711c6.9414 3.75 13.098 8.7812 18.203 14.891-1.9258 7.0586-2.9258 14.371-2.9258 21.684 0 24.336 10.559 47.066 29.055 62.73zm50.281 21.137c6.9336 4.9414 14.789 8.3125 23.133 9.9258-13.188 18.648-34.07 30.285-57.199 31.535 13.492-11.805 25.094-25.93 34.066-41.461zm49.523 41.57h49.18l3.8203 15.277h-56.816zm68.746 15.277-5.3711-21.488 5.8945-8.8398c2.2578 2.5469 4.6445 4.957 7.1523 7.2188l-4.625 23.109zm-17.688-30.555h-52.934l-8.5703-12.855c0.48438-0.80078 0.96094-1.6055 1.4258-2.4219h67.219c0.46484 0.81641 0.94141 1.625 1.4258 2.4219zm-71.145 0.22656 5.8945 8.8398-5.3711 21.488h-3.0508l-4.6211-23.109c2.5039-2.2617 4.8945-4.6719 7.1484-7.2188zm118.48 42.461c-2.1367 10.676-11.586 18.422-22.473 18.422h-102.67c-10.887 0-20.336-7.7461-22.469-18.422l-3.7969-18.988c4.2305-1.75 8.3086-3.8164 12.211-6.1797l3.207 16.031c1.4219 7.1172 7.7227 12.281 14.98 12.281h94.414c7.2578 0 13.559-5.1641 14.98-12.281l3.207-16.031c3.9023 2.3633 7.9805 4.4336 12.211 6.1797zm-22.824-59.059c8.3398-1.6133 16.199-4.9844 23.133-9.9258 8.9727 15.535 20.57 29.656 34.066 41.461-23.125-1.25-44.008-12.883-57.199-31.535zm32.234-25.234-4.7383-9.4805-7.4922 7.4961c-8.4141 8.4062-19.594 13.039-31.484 13.039h-79.004c-11.891 0-23.07-4.6289-31.48-13.039l-7.4922-7.4961-4.7383 9.4805c-1.6875 3.375-3.5156 6.6836-5.4648 9.9258l-3.6758-18.371-12.363-9.8945c-15.977-12.781-25.137-31.84-25.137-52.293 0-10.344 2.4453-20.699 7.0703-29.949 5.3672-10.738 8.207-22.762 8.207-34.766v-16.211c26.684-10.168 44.688-35.238 45.777-63.793l0.30469-0.38281c16.734-20.918 41.699-32.918 68.492-32.918s51.758 12 68.496 32.922l0.30469 0.38281c1.0898 28.555 19.094 53.625 45.777 63.793v16.211c0 12.004 2.8359 24.027 8.207 34.766 4.625 9.25 7.0703 19.605 7.0703 29.949 0 20.453-9.1602 39.512-25.133 52.293l-12.363 9.8945-3.6758 18.371c-1.9492-3.2461-3.7812-6.5547-5.4648-9.9297zm107.74-57.797c0 29.543-24.031 53.574-53.57 53.574-4.375 0-8.7461-0.53906-12.992-1.5977l-8.3203-2.082c18.492-15.664 29.055-38.395 29.055-62.73 0-7.3086-1-14.621-2.9258-21.68 5.1055-6.1055 11.262-11.137 18.203-14.891v47.711c0 7.625-4.2383 14.477-11.055 17.887l6.832 13.664c12.027-6.0117 19.5-18.102 19.5-31.551l-0.003906-69.906-10.055 3.3516c-11.172 3.7227-21.191 9.8281-29.523 17.891-1.6562-3.4219-2.9844-6.9961-3.9922-10.668 15.406-18.012 35.945-30.707 58.848-36.426z" fill="#052825"/>
 </g>
</svg>
