<?xml version="1.0" encoding="UTF-8"?>
<svg width="752pt" height="752pt" version="1.1" viewBox="0 0 752 752" xmlns="http://www.w3.org/2000/svg">
 <g>
  <path d="m346.4 309.4c0 4.0898-3.3125 7.4023-7.3984 7.4023-4.0859 0-7.4023-3.3125-7.4023-7.4023 0-4.0859 3.3164-7.3984 7.4023-7.3984 4.0859 0 7.3984 3.3125 7.3984 7.3984"/>
  <path d="m420.4 309.4c0 4.0898-3.3125 7.4023-7.3984 7.4023s-7.3984-3.3125-7.3984-7.4023c0-4.0859 3.3125-7.3984 7.3984-7.3984s7.3984 3.3125 7.3984 7.3984"/>
  <path d="m368.6 479.6h14.801v14.801h-14.801z"/>
  <path d="m368.6 516.6h14.801v14.801h-14.801z"/>
  <path d="m368.6 553.59h14.801v14.801h-14.801z"/>
  <path d="m376 146.61c-126.49 0-229.39 102.91-229.39 229.39 0 126.48 102.9 229.39 229.39 229.39s229.39-102.91 229.39-229.39c0-126.48-102.9-229.39-229.39-229.39zm91.164 80.43c-10.465-2.1914-19.906-8.1836-26.23-17.043-15.102-21.156-39.648-33.785-65.648-33.785-44.48 0-80.68 36.191-80.68 80.676v15.52h-7.3984c-2.6055 0-5.0781 0.53125-7.3984 1.3633l-0.003906-16.164c0-53.043 43.156-96.195 96.195-96.195 41.41 0 78.195 27.066 91.164 65.629zm-55.527 134.16c-3.0625-8.5898-11.203-14.801-20.836-14.801h-22.199c-12.238 0-22.199 9.9609-22.199 22.199 0 12.238 9.9609 22.199 22.199 22.199h22.199c9.6328 0 17.773-6.207 20.836-14.801h19.699c-11.965 17.832-32.301 29.598-55.336 29.598-36.727 0-66.598-29.879-66.598-66.598v-44.48c19.742-0.41406 38.359-7.6211 53.102-20.594l25.59 12.793c10.305 5.1641 21.859 7.8867 33.387 7.8867 7.2812 0 14.371-1.1328 21.117-3.1445v47.543c0 7.793-1.4141 15.242-3.8867 22.199zm-13.438 7.3984c0 4.0781-3.3164 7.3984-7.3984 7.3984h-22.199c-4.0859 0-7.3984-3.3242-7.3984-7.3984 0-4.0781 3.3164-7.3984 7.3984-7.3984h22.199c4.0859 0 7.3984 3.3203 7.3984 7.3984zm111 175.46c-20.809 16.523-44.715 29.297-70.734 37.227l19.727-34.527-14.023-35.051 28.562-21.43-6.1992-43.445 13.41 2.8711c16.961 3.6445 29.258 18.852 29.258 36.188zm-58.078-100.52 5.7422 40.164-30.637 22.969 15.578 38.945-23.273 40.719c-3.6758 0.73828-7.3906 1.375-11.129 1.9297l25.84-148.56zm-38.547 28.621-23.988-17.457 26.098-18.98 4.0859 0.875zm-6.9688-48.129-29.602 21.527-29.598-21.527v-9.2852c9.1914 3.6055 19.152 5.6523 29.598 5.6523 10.449 0 20.41-2.0508 29.598-5.6523zm-92.062 157.26c-26.016-7.9336-49.926-20.703-70.734-37.227v-58.176c0-17.332 12.297-32.543 29.25-36.176l13.41-2.8711-6.1992 43.445 28.562 21.43-14.023 35.051zm-3.3438-35.668 15.578-38.945-30.637-22.969 5.7422-40.164 17.871-3.832 25.84 148.56c-3.7461-0.55469-7.4531-1.1836-11.129-1.9297zm23.051-109.02 4.0859-0.875 26.098 18.98-23.996 17.449zm-38.641-105h-7.3984c-4.0859 0-7.3984-3.3242-7.3984-7.3984v-29.598c0-4.0781 3.3164-7.3984 7.3984-7.3984h7.3984zm162.41 14.801h15.18v7.3984c0 4.0781-3.3164 7.3984-7.3984 7.3984h-10.551c1.3516-4.7695 2.3125-9.707 2.7695-14.797zm15.18-14.801h-14.801v-44.398h14.801zm-50.719-51.797c-9.2422 0-18.5-2.1836-26.766-6.3203l-34.973-17.484-3.7734 3.7734c-12.492 12.492-28.969 19.559-46.566 20.008v-22.895c0-36.324 29.555-65.879 65.883-65.879 21.23 0 41.277 10.316 53.609 27.594 10.832 15.156 28.414 24.207 47.047 24.207h0.83594c-9.1445 22.078-31.004 36.996-55.297 36.996zm-260.07 96.195c0-92.695 59.086-171.84 141.57-201.78-23.219 20.355-37.973 50.148-37.973 83.387v66.598c0 12.238 9.9609 22.199 22.199 22.199h7.7773c2.3008 25.418 16.332 47.461 36.621 60.738v14.68l-62.652 13.422c-23.727 5.0859-40.945 26.387-40.945 50.652v45.277c-40.988-39.105-66.598-94.191-66.598-155.17zm198.5 213.93-17.656-101.53 33.742-24.543 33.75 24.543-17.66 101.53c-5.3164 0.40234-10.672 0.66797-16.09 0.66797-5.4141 0-10.773-0.26562-16.086-0.66797zm164.08-58.754v-45.277c0-24.262-17.219-45.566-40.941-50.652l-62.656-13.43v-14.68c11.84-7.7383 21.52-18.477 28.016-31.137l16.383-0.003906c12.238 0 22.199-9.9609 22.199-22.199v-66.598c0-7.4648-5.5781-13.594-12.766-14.594 8.7695-8.7617 15.457-19.699 19.012-32.137l3.5664-12.457h-13.91c-5.9062-21.32-18.012-39.863-34.09-53.863 82.586 29.879 141.79 109.08 141.79 201.86 0 60.98-25.613 116.07-66.598 155.17z"/>
 </g>
</svg>
