<?xml version="1.0" encoding="UTF-8"?>
<svg width="752pt" height="752pt" version="1.1" viewBox="0 0 752 752" xmlns="http://www.w3.org/2000/svg">
 <defs>
  <clipPath id="c">
   <path d="m168 262h217v350.79h-217z"/>
  </clipPath>
  <clipPath id="b">
   <path d="m367 262h217v350.79h-217z"/>
  </clipPath>
  <clipPath id="a">
   <path d="m193 139.21h366v108.79h-366z"/>
  </clipPath>
 </defs>
 <g>
  <g clip-path="url(#c)">
   <path d="m231.89 296.09c-1.418 0-2.8555-0.36719-4.1797-1.1289l-28.703-16.742c-3.9648-2.3203-5.3008-7.4023-2.9922-11.367 2.3086-3.9609 7.3867-5.3086 11.367-2.9922l28.703 16.742c3.9648 2.3203 5.3008 7.4023 2.9922 11.367-1.5469 2.6406-4.3281 4.1211-7.1875 4.1211m-55.293 20.047c-4.5859 0-8.3086-3.7227-8.3086-8.3086v-33.234c0-4.5938 3.7227-8.3086 8.3086-8.3086 4.5859 0 8.3086 3.7148 8.3086 8.3086v33.234c0 4.5859-3.7227 8.3086-8.3086 8.3086m127.06 21.82c-1.4219 0-2.8672-0.36719-4.1797-1.1328l-28.707-16.75c-3.9609-2.3086-5.3008-7.3945-2.9883-11.355 2.3086-3.9727 7.3867-5.3008 11.355-2.9922l28.715 16.742c3.9648 2.3164 5.3008 7.4023 2.9844 11.367-1.5469 2.6406-4.3203 4.1211-7.1797 4.1211m71.758 41.863c-1.418 0-2.8555-0.36328-4.1758-1.1367l-28.707-16.742c-3.9648-2.3164-5.3008-7.4023-2.9844-11.363 2.3047-3.957 7.3867-5.3008 11.359-2.9922l28.707 16.75c3.9609 2.3086 5.3008 7.3945 2.9883 11.363-1.543 2.6445-4.3203 4.1211-7.1875 4.1211m-198.82 19.402c-4.5859 0-8.3086-3.7227-8.3086-8.3086v-33.234c0-4.5938 3.7227-8.3086 8.3086-8.3086 4.5859 0 8.3086 3.7148 8.3086 8.3086v33.234c0 4.5859-3.7227 8.3086-8.3086 8.3086m199.4 63.352c-4.5859 0-8.3086-3.7227-8.3086-8.3086v-33.234c0-4.5859 3.7227-8.3086 8.3086-8.3086s8.3086 3.7227 8.3086 8.3086v33.234c0 4.5859-3.7227 8.3086-8.3086 8.3086m-199.4 19.73c-4.5859 0-8.3086-3.7188-8.3086-8.3086v-33.23c0-4.5977 3.7227-8.3086 8.3086-8.3086 4.5859 0 8.3086 3.7109 8.3086 8.3086v33.23c0 4.5898-3.7227 8.3086-8.3086 8.3086m53.285 51.34c-1.332 0-2.6836-0.32422-3.9492-1.0039l-29.219-15.828c-4.0391-2.1875-5.5352-7.2305-3.3477-11.258 2.1836-4.0391 7.2188-5.5352 11.258-3.3477l29.219 15.816c4.0391 2.1953 5.543 7.2383 3.3555 11.266-1.5039 2.7773-4.3594 4.3555-7.3164 4.3555m146.12 12.016c-4.5859 0-8.3086-3.7227-8.3086-8.3086v-33.234c0-4.5859 3.7227-8.3086 8.3086-8.3086s8.3086 3.7227 8.3086 8.3086v33.234c0 4.5859-3.7227 8.3086-8.3086 8.3086m-73.062 27.559c-1.3281 0-2.6836-0.32422-3.9453-1.0078l-29.223-15.828c-4.0391-2.1836-5.5352-7.2266-3.3477-11.258 2.1836-4.0352 7.2188-5.5312 11.266-3.3555l29.223 15.836c4.0273 2.1836 5.5312 7.2305 3.3477 11.266-1.5117 2.7773-4.3633 4.3477-7.3203 4.3477m73.062 39.57c-1.3516 0-2.7148-0.33203-3.9531-1.0039l-29.223-15.828c-4.0352-2.1836-5.5312-7.2266-3.3477-11.266 2.1875-4.0312 7.2227-5.5352 11.266-3.3477l16.949 9.1797v-3.3242c0-4.5859 3.7227-8.3086 8.3086-8.3086s8.3086 3.7227 8.3086 8.3086v17.281c0 2.9258-1.5352 5.6328-4.0547 7.1367-1.3047 0.78125-2.7812 1.1719-4.2539 1.1719" fill-rule="evenodd"/>
  </g>
  <g clip-path="url(#b)">
   <path d="m520.11 296.09c-2.8555 0-5.6406-1.4805-7.1836-4.1211-2.3125-3.9648-0.97266-9.0469 2.9883-11.367l28.707-16.742c3.9805-2.3164 9.0547-0.96875 11.367 2.9922 2.3086 3.9648 0.96875 9.0469-2.9922 11.367l-28.707 16.742c-1.3203 0.76172-2.7578 1.1289-4.1797 1.1289m55.293 20.047c-4.5859 0-8.3086-3.7227-8.3086-8.3086v-33.234c0-4.5938 3.7227-8.3086 8.3086-8.3086s8.3086 3.7148 8.3086 8.3086v33.234c0 4.5859-3.7227 8.3086-8.3086 8.3086m-127.06 21.82c-2.8594 0-5.6328-1.4805-7.1797-4.1211-2.3164-3.9648-0.98047-9.0508 2.9844-11.367l28.711-16.742c3.9727-2.3086 9.0508-0.98047 11.359 2.9922 2.3086 3.9609 0.97266 9.0469-2.9922 11.355l-28.703 16.75c-1.3164 0.76562-2.7617 1.1328-4.1797 1.1328m-71.762 41.863c-2.8672 0-5.6406-1.4766-7.1875-4.1211-2.3086-3.9688-0.97266-9.0547 2.9922-11.363l28.707-16.75c3.9766-2.3086 9.0469-0.96484 11.355 2.9922 2.3203 3.9609 0.98047 9.0469-2.9805 11.363l-28.707 16.742c-1.3203 0.77344-2.7578 1.1367-4.1797 1.1367m198.82 19.402c-4.5859 0-8.3086-3.7227-8.3086-8.3086v-33.234c0-4.5938 3.7227-8.3086 8.3086-8.3086s8.3086 3.7148 8.3086 8.3086v33.234c0 4.5859-3.7227 8.3086-8.3086 8.3086m-199.4 63.352c-4.5859 0-8.3086-3.7227-8.3086-8.3086v-33.234c0-4.5859 3.7227-8.3086 8.3086-8.3086 4.5859 0 8.3086 3.7227 8.3086 8.3086v33.234c0 4.5859-3.7227 8.3086-8.3086 8.3086m199.4 19.73c-4.5859 0-8.3086-3.7188-8.3086-8.3086v-33.23c0-4.5977 3.7227-8.3086 8.3086-8.3086s8.3086 3.7109 8.3086 8.3086v33.23c0 4.5898-3.7227 8.3086-8.3086 8.3086m-53.281 51.34c-2.957 0-5.8164-1.5781-7.3203-4.3555-2.1836-4.0273-0.67969-9.0703 3.3555-11.266l29.223-15.816c4.0391-2.2031 9.0742-0.69141 11.258 3.3477 2.1836 4.0273 0.69141 9.0703-3.3477 11.258l-29.223 15.828c-1.2617 0.67969-2.6172 1.0039-3.9453 1.0039m-146.12 12.016c-4.5859 0-8.3086-3.7227-8.3086-8.3086v-33.234c0-4.5859 3.7227-8.3086 8.3086-8.3086 4.5859 0 8.3086 3.7227 8.3086 8.3086v33.234c0 4.5859-3.7227 8.3086-8.3086 8.3086m73.066 27.559c-2.957 0-5.8086-1.5703-7.3203-4.3477-2.1875-4.0352-0.68359-9.082 3.3477-11.266l29.223-15.836c4.043-2.1914 9.0781-0.6875 11.266 3.3555 2.1836 4.0312 0.6875 9.0742-3.3477 11.258l-29.223 15.828c-1.2539 0.68359-2.6172 1.0078-3.9453 1.0078m-73.066 39.57c-1.4688 0-2.9492-0.39062-4.2539-1.1719-2.5156-1.5039-4.0547-4.2109-4.0547-7.1367v-17.281c0-4.5859 3.7227-8.3086 8.3086-8.3086 4.5859 0 8.3086 3.7227 8.3086 8.3086v3.3242l16.949-9.1797c4.0391-2.1953 9.082-0.69141 11.266 3.3477 2.1875 4.0391 0.69141 9.082-3.3477 11.266l-29.219 15.828c-1.2383 0.67188-2.6016 1.0039-3.957 1.0039" fill-rule="evenodd"/>
  </g>
  <g clip-path="url(#a)">
   <path d="m331.39 173.02c-2.9922 0-5.7344-1.5781-7.2305-4.1523-0.74609-1.3281-1.0781-2.7422-1.0781-4.1562 0-2.9883 1.5781-5.7305 4.1523-7.2266l28.832-16.449c3.9062-2.2461 9.2227-0.75 11.383 3.0703 1.0781 1.9141 1.4102 4.1562 0.83203 6.3164-0.58203 2.1602-1.9961 3.9062-3.9062 4.9844l-28.914 16.535c-1.2461 0.66406-2.6602 1.0781-4.0703 1.0781m93.801 2.5781c-1.4961 0-2.9062-0.41797-4.1523-1.082l-28.832-16.531c-2.5742-1.4141-4.2383-4.2383-4.2383-7.1484 0-1.4961 0.41797-2.9062 1.082-4.1523 2.2422-3.8242 7.4766-5.3164 11.383-3.0742l28.828 16.449c3.9883 2.3281 5.4023 7.3945 3.0742 11.383-1.4102 2.5781-4.2344 4.1562-7.1445 4.1562m-158.77 34.48c-2.9062 0-5.7344-1.582-7.2266-4.1562-0.66797-1.2461-1.082-2.6602-1.082-4.1523 0-2.9922 1.6602-5.7344 4.2383-7.1484l28.828-16.531c3.9062-2.1602 9.1406-0.75 11.383 3.0742 1.082 1.9922 1.332 4.2344 0.75 6.3125-0.58203 2.1602-1.9141 3.9883-3.9062 5.0703l-28.832 16.449c-1.2461 0.74609-2.6562 1.082-4.1523 1.082m223.66 2.6562c-1.4961 0-2.9102-0.41406-4.1562-1.1641l-28.828-16.449c-2.5781-1.4961-4.1562-4.2383-4.1562-7.2266 0-1.4141 0.33203-2.8281 1.082-4.1562 2.1602-3.8203 7.4766-5.2344 11.297-3.0742l28.914 16.535c3.9062 2.2422 5.3164 7.3086 3.0742 11.297-1.4961 2.5781-4.2383 4.2383-7.2266 4.2383m-288.55 34.48c-2.9883 0-5.7305-1.5781-7.2266-4.1523-1.082-1.9141-1.4141-4.1562-0.83203-6.3164 0.58203-2.1602 1.9961-3.9062 3.9062-5.0664l28.914-16.453c3.8203-2.2422 9.1367-0.74609 11.297 3.0742 2.2461 3.9883 0.91406 9.0586-3.0742 11.301l-28.828 16.535c-1.2461 0.66406-2.7422 1.0781-4.1562 1.0781m348.96 0c-1.4141 0-2.8242-0.41406-4.1562-1.0781l-24.344-13.961c-2.5742-1.4102-4.1523-4.1523-4.1523-7.1445 0-1.4961 0.41406-2.9062 1.0781-4.1523 2.2461-3.8242 7.4805-5.3203 11.383-3.0742l24.344 13.875c3.9883 2.3242 5.3164 7.3945 3.0742 11.383-1.4961 2.5742-4.2383 4.1523-7.2266 4.1523" fill-rule="evenodd"/>
  </g>
 </g>
</svg>
