<svg id="visual" viewBox="0 0 900 20" width="900" height="20" xmlns="http://www.w3.org/2000/svg" xmlns:xlink="http://www.w3.org/1999/xlink" version="1.1"><path d="M0 8L10.7 7.7C21.3 7.3 42.7 6.7 64.2 6.7C85.7 6.7 107.3 7.3 128.8 6.7C150.3 6 171.7 4 193 3.2C214.3 2.3 235.7 2.7 257 3.3C278.3 4 299.7 5 321.2 6.3C342.7 7.7 364.3 9.3 385.8 8.8C407.3 8.3 428.7 5.7 450 4.3C471.3 3 492.7 3 514.2 3.7C535.7 4.3 557.3 5.7 578.8 6.2C600.3 6.7 621.7 6.3 643 6.5C664.3 6.7 685.7 7.3 707 8.2C728.3 9 749.7 10 771.2 10.5C792.7 11 814.3 11 835.8 10.2C857.3 9.3 878.7 7.7 889.3 6.8L900 6L900 0L889.3 0C878.7 0 857.3 0 835.8 0C814.3 0 792.7 0 771.2 0C749.7 0 728.3 0 707 0C685.7 0 664.3 0 643 0C621.7 0 600.3 0 578.8 0C557.3 0 535.7 0 514.2 0C492.7 0 471.3 0 450 0C428.7 0 407.3 0 385.8 0C364.3 0 342.7 0 321.2 0C299.7 0 278.3 0 257 0C235.7 0 214.3 0 193 0C171.7 0 150.3 0 128.8 0C107.3 0 85.7 0 64.2 0C42.7 0 21.3 0 10.7 0L0 0Z" fill="#e9ecef"></path><path d="M0 9L10.7 9.3C21.3 9.7 42.7 10.3 64.2 10.5C85.7 10.7 107.3 10.3 128.8 9.3C150.3 8.3 171.7 6.7 193 6C214.3 5.3 235.7 5.7 257 6.3C278.3 7 299.7 8 321.2 9C342.7 10 364.3 11 385.8 10.3C407.3 9.7 428.7 7.3 450 6.2C471.3 5 492.7 5 514.2 6C535.7 7 557.3 9 578.8 9.3C600.3 9.7 621.7 8.3 643 8.3C664.3 8.3 685.7 9.7 707 11.2C728.3 12.7 749.7 14.3 771.2 14.7C792.7 15 814.3 14 835.8 13.2C857.3 12.3 878.7 11.7 889.3 11.3L900 11L900 4L889.3 4.8C878.7 5.7 857.3 7.3 835.8 8.2C814.3 9 792.7 9 771.2 8.5C749.7 8 728.3 7 707 6.2C685.7 5.3 664.3 4.7 643 4.5C621.7 4.3 600.3 4.7 578.8 4.2C557.3 3.7 535.7 2.3 514.2 1.7C492.7 1 471.3 1 450 2.3C428.7 3.7 407.3 6.3 385.8 6.8C364.3 7.3 342.7 5.7 321.2 4.3C299.7 3 278.3 2 257 1.3C235.7 0.7 214.3 0.3 193 1.2C171.7 2 150.3 4 128.8 4.7C107.3 5.3 85.7 4.7 64.2 4.7C42.7 4.7 21.3 5.3 10.7 5.7L0 6Z" fill="#a9b2b6"></path><path d="M0 13L10.7 13.2C21.3 13.3 42.7 13.7 64.2 13.3C85.7 13 107.3 12 128.8 11C150.3 10 171.7 9 193 9.3C214.3 9.7 235.7 11.3 257 11.8C278.3 12.3 299.7 11.7 321.2 11.8C342.7 12 364.3 13 385.8 12.7C407.3 12.3 428.7 10.7 450 9.7C471.3 8.7 492.7 8.3 514.2 9.7C535.7 11 557.3 14 578.8 15C600.3 16 621.7 15 643 14.5C664.3 14 685.7 14 707 14.5C728.3 15 749.7 16 771.2 16C792.7 16 814.3 15 835.8 15.2C857.3 15.3 878.7 16.7 889.3 17.3L900 18L900 9L889.3 9.3C878.7 9.7 857.3 10.3 835.8 11.2C814.3 12 792.7 13 771.2 12.7C749.7 12.3 728.3 10.7 707 9.2C685.7 7.7 664.3 6.3 643 6.3C621.7 6.3 600.3 7.7 578.8 7.3C557.3 7 535.7 5 514.2 4C492.7 3 471.3 3 450 4.2C428.7 5.3 407.3 7.7 385.8 8.3C364.3 9 342.7 8 321.2 7C299.7 6 278.3 5 257 4.3C235.7 3.7 214.3 3.3 193 4C171.7 4.7 150.3 6.3 128.8 7.3C107.3 8.3 85.7 8.7 64.2 8.5C42.7 8.3 21.3 7.7 10.7 7.3L0 7Z" fill="#6d7c7e"></path><path d="M0 14L10.7 14.7C21.3 15.3 42.7 16.7 64.2 16.3C85.7 16 107.3 14 128.8 12.7C150.3 11.3 171.7 10.7 193 11.3C214.3 12 235.7 14 257 14.5C278.3 15 299.7 14 321.2 14C342.7 14 364.3 15 385.8 14.5C407.3 14 428.7 12 450 11C471.3 10 492.7 10 514.2 11.7C535.7 13.3 557.3 16.7 578.8 17.8C600.3 19 621.7 18 643 17.8C664.3 17.7 685.7 18.3 707 18.8C728.3 19.3 749.7 19.7 771.2 18.8C792.7 18 814.3 16 835.8 15.8C857.3 15.7 878.7 17.3 889.3 18.2L900 19L900 16L889.3 15.3C878.7 14.7 857.3 13.3 835.8 13.2C814.3 13 792.7 14 771.2 14C749.7 14 728.3 13 707 12.5C685.7 12 664.3 12 643 12.5C621.7 13 600.3 14 578.8 13C557.3 12 535.7 9 514.2 7.7C492.7 6.3 471.3 6.7 450 7.7C428.7 8.7 407.3 10.3 385.8 10.7C364.3 11 342.7 10 321.2 9.8C299.7 9.7 278.3 10.3 257 9.8C235.7 9.3 214.3 7.7 193 7.3C171.7 7 150.3 8 128.8 9C107.3 10 85.7 11 64.2 11.3C42.7 11.7 21.3 11.3 10.7 11.2L0 11Z" fill="#374a47"></path><path d="M0 21L10.7 21C21.3 21 42.7 21 64.2 21C85.7 21 107.3 21 128.8 21C150.3 21 171.7 21 193 21C214.3 21 235.7 21 257 21C278.3 21 299.7 21 321.2 21C342.7 21 364.3 21 385.8 21C407.3 21 428.7 21 450 21C471.3 21 492.7 21 514.2 21C535.7 21 557.3 21 578.8 21C600.3 21 621.7 21 643 21C664.3 21 685.7 21 707 21C728.3 21 749.7 21 771.2 21C792.7 21 814.3 21 835.8 21C857.3 21 878.7 21 889.3 21L900 21L900 17L889.3 16.2C878.7 15.3 857.3 13.7 835.8 13.8C814.3 14 792.7 16 771.2 16.8C749.7 17.7 728.3 17.3 707 16.8C685.7 16.3 664.3 15.7 643 15.8C621.7 16 600.3 17 578.8 15.8C557.3 14.7 535.7 11.3 514.2 9.7C492.7 8 471.3 8 450 9C428.7 10 407.3 12 385.8 12.5C364.3 13 342.7 12 321.2 12C299.7 12 278.3 13 257 12.5C235.7 12 214.3 10 193 9.3C171.7 8.7 150.3 9.3 128.8 10.7C107.3 12 85.7 14 64.2 14.3C42.7 14.7 21.3 13.3 10.7 12.7L0 12Z" fill="#081c15"></path></svg>