<svg id="visual" viewBox="0 0 900 20" width="900" height="20" xmlns="http://www.w3.org/2000/svg" xmlns:xlink="http://www.w3.org/1999/xlink" version="1.1"><path d="M0 4L8.8 4.2C17.7 4.3 35.3 4.7 53 4.7C70.7 4.7 88.3 4.3 106 4.5C123.7 4.7 141.3 5.3 159 5.8C176.7 6.3 194.3 6.7 212 6.2C229.7 5.7 247.3 4.3 265 4C282.7 3.7 300.3 4.3 318 4.8C335.7 5.3 353.3 5.7 371 5.2C388.7 4.7 406.3 3.3 423.8 3.7C441.3 4 458.7 6 476.2 6.2C493.7 6.3 511.3 4.7 529 4.3C546.7 4 564.3 5 582 4.8C599.7 4.7 617.3 3.3 635 2.7C652.7 2 670.3 2 688 2.7C705.7 3.3 723.3 4.7 741 4.7C758.7 4.7 776.3 3.3 794 2.7C811.7 2 829.3 2 847 2C864.7 2 882.3 2 891.2 2L900 2L900 0L891.2 0C882.3 0 864.7 0 847 0C829.3 0 811.7 0 794 0C776.3 0 758.7 0 741 0C723.3 0 705.7 0 688 0C670.3 0 652.7 0 635 0C617.3 0 599.7 0 582 0C564.3 0 546.7 0 529 0C511.3 0 493.7 0 476.2 0C458.7 0 441.3 0 423.8 0C406.3 0 388.7 0 371 0C353.3 0 335.7 0 318 0C300.3 0 282.7 0 265 0C247.3 0 229.7 0 212 0C194.3 0 176.7 0 159 0C141.3 0 123.7 0 106 0C88.3 0 70.7 0 53 0C35.3 0 17.7 0 8.8 0L0 0Z" fill="#e9ecef"></path><path d="M0 8L8.8 8C17.7 8 35.3 8 53 7.7C70.7 7.3 88.3 6.7 106 6.7C123.7 6.7 141.3 7.3 159 7.8C176.7 8.3 194.3 8.7 212 8.3C229.7 8 247.3 7 265 7.3C282.7 7.7 300.3 9.3 318 9.8C335.7 10.3 353.3 9.7 371 9.2C388.7 8.7 406.3 8.3 423.8 8.8C441.3 9.3 458.7 10.7 476.2 10.2C493.7 9.7 511.3 7.3 529 6.5C546.7 5.7 564.3 6.3 582 6.5C599.7 6.7 617.3 6.3 635 6.3C652.7 6.3 670.3 6.7 688 7.3C705.7 8 723.3 9 741 8.5C758.7 8 776.3 6 794 4.8C811.7 3.7 829.3 3.3 847 3.5C864.7 3.7 882.3 4.3 891.2 4.7L900 5L900 0L891.2 0C882.3 0 864.7 0 847 0C829.3 0 811.7 0 794 0.7C776.3 1.3 758.7 2.7 741 2.7C723.3 2.7 705.7 1.3 688 0.7C670.3 0 652.7 0 635 0.7C617.3 1.3 599.7 2.7 582 2.8C564.3 3 546.7 2 529 2.3C511.3 2.7 493.7 4.3 476.2 4.2C458.7 4 441.3 2 423.8 1.7C406.3 1.3 388.7 2.7 371 3.2C353.3 3.7 335.7 3.3 318 2.8C300.3 2.3 282.7 1.7 265 2C247.3 2.3 229.7 3.7 212 4.2C194.3 4.7 176.7 4.3 159 3.8C141.3 3.3 123.7 2.7 106 2.5C88.3 2.3 70.7 2.7 53 2.7C35.3 2.7 17.7 2.3 8.8 2.2L0 2Z" fill="#a9b2b6"></path><path d="M0 15L8.8 15.2C17.7 15.3 35.3 15.7 53 15.7C70.7 15.7 88.3 15.3 106 14C123.7 12.7 141.3 10.3 159 10.3C176.7 10.3 194.3 12.7 212 12.7C229.7 12.7 247.3 10.3 265 10.5C282.7 10.7 300.3 13.3 318 14.2C335.7 15 353.3 14 371 14.3C388.7 14.7 406.3 16.3 423.8 17.2C441.3 18 458.7 18 476.2 16.2C493.7 14.3 511.3 10.7 529 10.2C546.7 9.7 564.3 12.3 582 12.3C599.7 12.3 617.3 9.7 635 9C652.7 8.3 670.3 9.7 688 11C705.7 12.3 723.3 13.7 741 14.3C758.7 15 776.3 15 794 14.8C811.7 14.7 829.3 14.3 847 13C864.7 11.7 882.3 9.3 891.2 8.2L900 7L900 3L891.2 2.7C882.3 2.3 864.7 1.7 847 1.5C829.3 1.3 811.7 1.7 794 2.8C776.3 4 758.7 6 741 6.5C723.3 7 705.7 6 688 5.3C670.3 4.7 652.7 4.3 635 4.3C617.3 4.3 599.7 4.7 582 4.5C564.3 4.3 546.7 3.7 529 4.5C511.3 5.3 493.7 7.7 476.2 8.2C458.7 8.7 441.3 7.3 423.8 6.8C406.3 6.3 388.7 6.7 371 7.2C353.3 7.7 335.7 8.3 318 7.8C300.3 7.3 282.7 5.7 265 5.3C247.3 5 229.7 6 212 6.3C194.3 6.7 176.7 6.3 159 5.8C141.3 5.3 123.7 4.7 106 4.7C88.3 4.7 70.7 5.3 53 5.7C35.3 6 17.7 6 8.8 6L0 6Z" fill="#6d7c7e"></path><path d="M0 19L8.8 19.2C17.7 19.3 35.3 19.7 53 19.7C70.7 19.7 88.3 19.3 106 19.2C123.7 19 141.3 19 159 18.8C176.7 18.7 194.3 18.3 212 18.2C229.7 18 247.3 18 265 18.3C282.7 18.7 300.3 19.3 318 19.3C335.7 19.3 353.3 18.7 371 18.8C388.7 19 406.3 20 423.8 20.5C441.3 21 458.7 21 476.2 21C493.7 21 511.3 21 529 20.3C546.7 19.7 564.3 18.3 582 17.7C599.7 17 617.3 17 635 17C652.7 17 670.3 17 688 17.2C705.7 17.3 723.3 17.7 741 18.2C758.7 18.7 776.3 19.3 794 19.5C811.7 19.7 829.3 19.3 847 18.8C864.7 18.3 882.3 17.7 891.2 17.3L900 17L900 5L891.2 6.2C882.3 7.3 864.7 9.7 847 11C829.3 12.3 811.7 12.7 794 12.8C776.3 13 758.7 13 741 12.3C723.3 11.7 705.7 10.3 688 9C670.3 7.7 652.7 6.3 635 7C617.3 7.7 599.7 10.3 582 10.3C564.3 10.3 546.7 7.7 529 8.2C511.3 8.7 493.7 12.3 476.2 14.2C458.7 16 441.3 16 423.8 15.2C406.3 14.3 388.7 12.7 371 12.3C353.3 12 335.7 13 318 12.2C300.3 11.3 282.7 8.7 265 8.5C247.3 8.3 229.7 10.7 212 10.7C194.3 10.7 176.7 8.3 159 8.3C141.3 8.3 123.7 10.7 106 12C88.3 13.3 70.7 13.7 53 13.7C35.3 13.7 17.7 13.3 8.8 13.2L0 13Z" fill="#374a47"></path><path d="M0 21L8.8 21C17.7 21 35.3 21 53 21C70.7 21 88.3 21 106 21C123.7 21 141.3 21 159 21C176.7 21 194.3 21 212 21C229.7 21 247.3 21 265 21C282.7 21 300.3 21 318 21C335.7 21 353.3 21 371 21C388.7 21 406.3 21 423.8 21C441.3 21 458.7 21 476.2 21C493.7 21 511.3 21 529 21C546.7 21 564.3 21 582 21C599.7 21 617.3 21 635 21C652.7 21 670.3 21 688 21C705.7 21 723.3 21 741 21C758.7 21 776.3 21 794 21C811.7 21 829.3 21 847 21C864.7 21 882.3 21 891.2 21L900 21L900 15L891.2 15.3C882.3 15.7 864.7 16.3 847 16.8C829.3 17.3 811.7 17.7 794 17.5C776.3 17.3 758.7 16.7 741 16.2C723.3 15.7 705.7 15.3 688 15.2C670.3 15 652.7 15 635 15C617.3 15 599.7 15 582 15.7C564.3 16.3 546.7 17.7 529 18.3C511.3 19 493.7 19 476.2 19C458.7 19 441.3 19 423.8 18.5C406.3 18 388.7 17 371 16.8C353.3 16.7 335.7 17.3 318 17.3C300.3 17.3 282.7 16.7 265 16.3C247.3 16 229.7 16 212 16.2C194.3 16.3 176.7 16.7 159 16.8C141.3 17 123.7 17 106 17.2C88.3 17.3 70.7 17.7 53 17.7C35.3 17.7 17.7 17.3 8.8 17.2L0 17Z" fill="#081c15"></path></svg>