<svg id="visual" viewBox="0 0 1920 1080" width="1920" height="1080" xmlns="http://www.w3.org/2000/svg" xmlns:xlink="http://www.w3.org/1999/xlink" version="1.1"><path d="M0 109L13.8 101.8C27.7 94.7 55.3 80.3 83.2 80.3C111 80.3 139 94.7 166.8 100C194.7 105.3 222.3 101.7 250.2 98C278 94.3 306 90.7 333.8 85.3C361.7 80 389.3 73 417.2 69.5C445 66 473 66 500.8 66C528.7 66 556.3 66 584.2 69.5C612 73 640 80 667.8 83.5C695.7 87 723.3 87 751.2 83.5C779 80 807 73 834.8 71.3C862.7 69.7 890.3 73.3 918.2 78.7C946 84 974 91 1001.8 87.3C1029.7 83.7 1057.3 69.3 1085.2 64C1113 58.7 1141 62.3 1168.8 67.7C1196.7 73 1224.3 80 1252.2 85.3C1280 90.7 1308 94.3 1335.8 98C1363.7 101.7 1391.3 105.3 1419.2 105.3C1447 105.3 1475 101.7 1502.8 98C1530.7 94.3 1558.3 90.7 1586.2 85.3C1614 80 1642 73 1669.8 73C1697.7 73 1725.3 80 1753.2 80C1781 80 1809 73 1836.8 76.7C1864.7 80.3 1892.3 94.7 1906.2 101.8L1920 109L1920 0L1906.2 0C1892.3 0 1864.7 0 1836.8 0C1809 0 1781 0 1753.2 0C1725.3 0 1697.7 0 1669.8 0C1642 0 1614 0 1586.2 0C1558.3 0 1530.7 0 1502.8 0C1475 0 1447 0 1419.2 0C1391.3 0 1363.7 0 1335.8 0C1308 0 1280 0 1252.2 0C1224.3 0 1196.7 0 1168.8 0C1141 0 1113 0 1085.2 0C1057.3 0 1029.7 0 1001.8 0C974 0 946 0 918.2 0C890.3 0 862.7 0 834.8 0C807 0 779 0 751.2 0C723.3 0 695.7 0 667.8 0C640 0 612 0 584.2 0C556.3 0 528.7 0 500.8 0C473 0 445 0 417.2 0C389.3 0 361.7 0 333.8 0C306 0 278 0 250.2 0C222.3 0 194.7 0 166.8 0C139 0 111 0 83.2 0C55.3 0 27.7 0 13.8 0L0 0Z" fill="#081c15"></path><path d="M0 163L13.8 159.3C27.7 155.7 55.3 148.3 83.2 152C111 155.7 139 170.3 166.8 172.2C194.7 174 222.3 163 250.2 157.5C278 152 306 152 333.8 150.2C361.7 148.3 389.3 144.7 417.2 137.5C445 130.3 473 119.7 500.8 118C528.7 116.3 556.3 123.7 584.2 134.5C612 145.3 640 159.7 667.8 166.8C695.7 174 723.3 174 751.2 165C779 156 807 138 834.8 136.2C862.7 134.3 890.3 148.7 918.2 155.8C946 163 974 163 1001.8 157.7C1029.7 152.3 1057.3 141.7 1085.2 138C1113 134.3 1141 137.7 1168.8 139.3C1196.7 141 1224.3 141 1252.2 148.3C1280 155.7 1308 170.3 1335.8 175.8C1363.7 181.3 1391.3 177.7 1419.2 177.7C1447 177.7 1475 181.3 1502.8 181.3C1530.7 181.3 1558.3 177.7 1586.2 166.8C1614 156 1642 138 1669.8 136.2C1697.7 134.3 1725.3 148.7 1753.2 148.7C1781 148.7 1809 134.3 1836.8 138C1864.7 141.7 1892.3 163.3 1906.2 174.2L1920 185L1920 107L1906.2 99.8C1892.3 92.7 1864.7 78.3 1836.8 74.7C1809 71 1781 78 1753.2 78C1725.3 78 1697.7 71 1669.8 71C1642 71 1614 78 1586.2 83.3C1558.3 88.7 1530.7 92.3 1502.8 96C1475 99.7 1447 103.3 1419.2 103.3C1391.3 103.3 1363.7 99.7 1335.8 96C1308 92.3 1280 88.7 1252.2 83.3C1224.3 78 1196.7 71 1168.8 65.7C1141 60.3 1113 56.7 1085.2 62C1057.3 67.3 1029.7 81.7 1001.8 85.3C974 89 946 82 918.2 76.7C890.3 71.3 862.7 67.7 834.8 69.3C807 71 779 78 751.2 81.5C723.3 85 695.7 85 667.8 81.5C640 78 612 71 584.2 67.5C556.3 64 528.7 64 500.8 64C473 64 445 64 417.2 67.5C389.3 71 361.7 78 333.8 83.3C306 88.7 278 92.3 250.2 96C222.3 99.7 194.7 103.3 166.8 98C139 92.7 111 78.3 83.2 78.3C55.3 78.3 27.7 92.7 13.8 99.8L0 107Z" fill="#324543"></path><path d="M0 195L13.8 191.5C27.7 188 55.3 181 83.2 184.7C111 188.3 139 202.7 166.8 206.2C194.7 209.7 222.3 202.3 250.2 197C278 191.7 306 188.3 333.8 186.7C361.7 185 389.3 185 417.2 179.5C445 174 473 163 500.8 161.2C528.7 159.3 556.3 166.7 584.2 177.5C612 188.3 640 202.7 667.8 209.8C695.7 217 723.3 217 751.2 206.2C779 195.3 807 173.7 834.8 171.8C862.7 170 890.3 188 918.2 197C946 206 974 206 1001.8 200.7C1029.7 195.3 1057.3 184.7 1085.2 179.3C1113 174 1141 174 1168.8 175.8C1196.7 177.7 1224.3 181.3 1252.2 188.5C1280 195.7 1308 206.3 1335.8 211.7C1363.7 217 1391.3 217 1419.2 217C1447 217 1475 217 1502.8 215.2C1530.7 213.3 1558.3 209.7 1586.2 198.8C1614 188 1642 170 1669.8 168.2C1697.7 166.3 1725.3 180.7 1753.2 182.5C1781 184.3 1809 173.7 1836.8 177.3C1864.7 181 1892.3 199 1906.2 208L1920 217L1920 183L1906.2 172.2C1892.3 161.3 1864.7 139.7 1836.8 136C1809 132.3 1781 146.7 1753.2 146.7C1725.3 146.7 1697.7 132.3 1669.8 134.2C1642 136 1614 154 1586.2 164.8C1558.3 175.7 1530.7 179.3 1502.8 179.3C1475 179.3 1447 175.7 1419.2 175.7C1391.3 175.7 1363.7 179.3 1335.8 173.8C1308 168.3 1280 153.7 1252.2 146.3C1224.3 139 1196.7 139 1168.8 137.3C1141 135.7 1113 132.3 1085.2 136C1057.3 139.7 1029.7 150.3 1001.8 155.7C974 161 946 161 918.2 153.8C890.3 146.7 862.7 132.3 834.8 134.2C807 136 779 154 751.2 163C723.3 172 695.7 172 667.8 164.8C640 157.7 612 143.3 584.2 132.5C556.3 121.7 528.7 114.3 500.8 116C473 117.7 445 128.3 417.2 135.5C389.3 142.7 361.7 146.3 333.8 148.2C306 150 278 150 250.2 155.5C222.3 161 194.7 172 166.8 170.2C139 168.3 111 153.7 83.2 150C55.3 146.3 27.7 153.7 13.8 157.3L0 161Z" fill="#637374"></path><path d="M0 228L13.8 226.2C27.7 224.3 55.3 220.7 83.2 224.2C111 227.7 139 238.3 166.8 240.2C194.7 242 222.3 235 250.2 229.7C278 224.3 306 220.7 333.8 222.5C361.7 224.3 389.3 231.7 417.2 229.8C445 228 473 217 500.8 215.2C528.7 213.3 556.3 220.7 584.2 231.5C612 242.3 640 256.7 667.8 260.2C695.7 263.7 723.3 256.3 751.2 245.5C779 234.7 807 220.3 834.8 222.2C862.7 224 890.3 242 918.2 251C946 260 974 260 1001.8 254.7C1029.7 249.3 1057.3 238.7 1085.2 233.3C1113 228 1141 228 1168.8 228C1196.7 228 1224.3 228 1252.2 235.2C1280 242.3 1308 256.7 1335.8 262C1363.7 267.3 1391.3 263.7 1419.2 260C1447 256.3 1475 252.7 1502.8 249.2C1530.7 245.7 1558.3 242.3 1586.2 235.2C1614 228 1642 217 1669.8 218.7C1697.7 220.3 1725.3 234.7 1753.2 234.7C1781 234.7 1809 220.3 1836.8 220.3C1864.7 220.3 1892.3 234.7 1906.2 241.8L1920 249L1920 215L1906.2 206C1892.3 197 1864.7 179 1836.8 175.3C1809 171.7 1781 182.3 1753.2 180.5C1725.3 178.7 1697.7 164.3 1669.8 166.2C1642 168 1614 186 1586.2 196.8C1558.3 207.7 1530.7 211.3 1502.8 213.2C1475 215 1447 215 1419.2 215C1391.3 215 1363.7 215 1335.8 209.7C1308 204.3 1280 193.7 1252.2 186.5C1224.3 179.3 1196.7 175.7 1168.8 173.8C1141 172 1113 172 1085.2 177.3C1057.3 182.7 1029.7 193.3 1001.8 198.7C974 204 946 204 918.2 195C890.3 186 862.7 168 834.8 169.8C807 171.7 779 193.3 751.2 204.2C723.3 215 695.7 215 667.8 207.8C640 200.7 612 186.3 584.2 175.5C556.3 164.7 528.7 157.3 500.8 159.2C473 161 445 172 417.2 177.5C389.3 183 361.7 183 333.8 184.7C306 186.3 278 189.7 250.2 195C222.3 200.3 194.7 207.7 166.8 204.2C139 200.7 111 186.3 83.2 182.7C55.3 179 27.7 186 13.8 189.5L0 193Z" fill="#98a3a7"></path><path d="M0 401L13.8 402.7C27.7 404.3 55.3 407.7 83.2 425.7C111 443.7 139 476.3 166.8 480C194.7 483.7 222.3 458.3 250.2 454.7C278 451 306 469 333.8 467.2C361.7 465.3 389.3 443.7 417.2 429.3C445 415 473 408 500.8 406.2C528.7 404.3 556.3 407.7 584.2 413C612 418.3 640 425.7 667.8 425.7C695.7 425.7 723.3 418.3 751.2 414.7C779 411 807 411 834.8 421.8C862.7 432.7 890.3 454.3 918.2 465.2C946 476 974 476 1001.8 472.5C1029.7 469 1057.3 462 1085.2 460.2C1113 458.3 1141 461.7 1168.8 456.2C1196.7 450.7 1224.3 436.3 1252.2 440C1280 443.7 1308 465.3 1335.8 472.5C1363.7 479.7 1391.3 472.3 1419.2 477.7C1447 483 1475 501 1502.8 502.8C1530.7 504.7 1558.3 490.3 1586.2 479.7C1614 469 1642 462 1669.8 453C1697.7 444 1725.3 433 1753.2 429.3C1781 425.7 1809 429.3 1836.8 424C1864.7 418.7 1892.3 404.3 1906.2 397.2L1920 390L1920 247L1906.2 239.8C1892.3 232.7 1864.7 218.3 1836.8 218.3C1809 218.3 1781 232.7 1753.2 232.7C1725.3 232.7 1697.7 218.3 1669.8 216.7C1642 215 1614 226 1586.2 233.2C1558.3 240.3 1530.7 243.7 1502.8 247.2C1475 250.7 1447 254.3 1419.2 258C1391.3 261.7 1363.7 265.3 1335.8 260C1308 254.7 1280 240.3 1252.2 233.2C1224.3 226 1196.7 226 1168.8 226C1141 226 1113 226 1085.2 231.3C1057.3 236.7 1029.7 247.3 1001.8 252.7C974 258 946 258 918.2 249C890.3 240 862.7 222 834.8 220.2C807 218.3 779 232.7 751.2 243.5C723.3 254.3 695.7 261.7 667.8 258.2C640 254.7 612 240.3 584.2 229.5C556.3 218.7 528.7 211.3 500.8 213.2C473 215 445 226 417.2 227.8C389.3 229.7 361.7 222.3 333.8 220.5C306 218.7 278 222.3 250.2 227.7C222.3 233 194.7 240 166.8 238.2C139 236.3 111 225.7 83.2 222.2C55.3 218.7 27.7 222.3 13.8 224.2L0 226Z" fill="#d2d7da"></path><path d="M0 509L13.8 509C27.7 509 55.3 509 83.2 527C111 545 139 581 166.8 586.3C194.7 591.7 222.3 566.3 250.2 557.3C278 548.3 306 555.7 333.8 548.5C361.7 541.3 389.3 519.7 417.2 510.7C445 501.7 473 505.3 500.8 505.3C528.7 505.3 556.3 501.7 584.2 505.2C612 508.7 640 519.3 667.8 524.7C695.7 530 723.3 530 751.2 528.2C779 526.3 807 522.7 834.8 531.7C862.7 540.7 890.3 562.3 918.2 575C946 587.7 974 591.3 1001.8 589.5C1029.7 587.7 1057.3 580.3 1085.2 571.3C1113 562.3 1141 551.7 1168.8 546.3C1196.7 541 1224.3 541 1252.2 546.3C1280 551.7 1308 562.3 1335.8 562.3C1363.7 562.3 1391.3 551.7 1419.2 553.5C1447 555.3 1475 569.7 1502.8 576.8C1530.7 584 1558.3 584 1586.2 582.2C1614 580.3 1642 576.7 1669.8 569.5C1697.7 562.3 1725.3 551.7 1753.2 542.7C1781 533.7 1809 526.3 1836.8 519.2C1864.7 512 1892.3 505 1906.2 501.5L1920 498L1920 388L1906.2 395.2C1892.3 402.3 1864.7 416.7 1836.8 422C1809 427.3 1781 423.7 1753.2 427.3C1725.3 431 1697.7 442 1669.8 451C1642 460 1614 467 1586.2 477.7C1558.3 488.3 1530.7 502.7 1502.8 500.8C1475 499 1447 481 1419.2 475.7C1391.3 470.3 1363.7 477.7 1335.8 470.5C1308 463.3 1280 441.7 1252.2 438C1224.3 434.3 1196.7 448.7 1168.8 454.2C1141 459.7 1113 456.3 1085.2 458.2C1057.3 460 1029.7 467 1001.8 470.5C974 474 946 474 918.2 463.2C890.3 452.3 862.7 430.7 834.8 419.8C807 409 779 409 751.2 412.7C723.3 416.3 695.7 423.7 667.8 423.7C640 423.7 612 416.3 584.2 411C556.3 405.7 528.7 402.3 500.8 404.2C473 406 445 413 417.2 427.3C389.3 441.7 361.7 463.3 333.8 465.2C306 467 278 449 250.2 452.7C222.3 456.3 194.7 481.7 166.8 478C139 474.3 111 441.7 83.2 423.7C55.3 405.7 27.7 402.3 13.8 400.7L0 399Z" fill="#e9ecef"></path><path d="M0 573L13.8 569.5C27.7 566 55.3 559 83.2 573.5C111 588 139 624 166.8 631.2C194.7 638.3 222.3 616.7 250.2 605.8C278 595 306 595 333.8 589.7C361.7 584.3 389.3 573.7 417.2 568.3C445 563 473 563 500.8 559.3C528.7 555.7 556.3 548.3 584.2 551.8C612 555.3 640 569.7 667.8 575C695.7 580.3 723.3 576.7 751.2 576.7C779 576.7 807 580.3 834.8 591.2C862.7 602 890.3 620 918.2 627.2C946 634.3 974 630.7 1001.8 627.2C1029.7 623.7 1057.3 620.3 1085.2 615C1113 609.7 1141 602.3 1168.8 600.5C1196.7 598.7 1224.3 602.3 1252.2 609.5C1280 616.7 1308 627.3 1335.8 621.8C1363.7 616.3 1391.3 594.7 1419.2 596.5C1447 598.3 1475 623.7 1502.8 636.3C1530.7 649 1558.3 649 1586.2 643.7C1614 638.3 1642 627.7 1669.8 615C1697.7 602.3 1725.3 587.7 1753.2 580.3C1781 573 1809 573 1836.8 565.8C1864.7 558.7 1892.3 544.3 1906.2 537.2L1920 530L1920 496L1906.2 499.5C1892.3 503 1864.7 510 1836.8 517.2C1809 524.3 1781 531.7 1753.2 540.7C1725.3 549.7 1697.7 560.3 1669.8 567.5C1642 574.7 1614 578.3 1586.2 580.2C1558.3 582 1530.7 582 1502.8 574.8C1475 567.7 1447 553.3 1419.2 551.5C1391.3 549.7 1363.7 560.3 1335.8 560.3C1308 560.3 1280 549.7 1252.2 544.3C1224.3 539 1196.7 539 1168.8 544.3C1141 549.7 1113 560.3 1085.2 569.3C1057.3 578.3 1029.7 585.7 1001.8 587.5C974 589.3 946 585.7 918.2 573C890.3 560.3 862.7 538.7 834.8 529.7C807 520.7 779 524.3 751.2 526.2C723.3 528 695.7 528 667.8 522.7C640 517.3 612 506.7 584.2 503.2C556.3 499.7 528.7 503.3 500.8 503.3C473 503.3 445 499.7 417.2 508.7C389.3 517.7 361.7 539.3 333.8 546.5C306 553.7 278 546.3 250.2 555.3C222.3 564.3 194.7 589.7 166.8 584.3C139 579 111 543 83.2 525C55.3 507 27.7 507 13.8 507L0 507Z" fill="#e9ecef"></path><path d="M0 638L13.8 630.8C27.7 623.7 55.3 609.3 83.2 620.2C111 631 139 667 166.8 676C194.7 685 222.3 667 250.2 659.8C278 652.7 306 656.3 333.8 652.7C361.7 649 389.3 638 417.2 630.8C445 623.7 473 620.3 500.8 613.2C528.7 606 556.3 595 584.2 600.3C612 605.7 640 627.3 667.8 636.3C695.7 645.3 723.3 641.7 751.2 639.8C779 638 807 638 834.8 647C862.7 656 890.3 674 918.2 681.2C946 688.3 974 684.7 1001.8 679.3C1029.7 674 1057.3 667 1085.2 663.5C1113 660 1141 660 1168.8 661.8C1196.7 663.7 1224.3 667.3 1252.2 674.5C1280 681.7 1308 692.3 1335.8 685C1363.7 677.7 1391.3 652.3 1419.2 654.2C1447 656 1475 685 1502.8 695.8C1530.7 706.7 1558.3 699.3 1586.2 690.3C1614 681.3 1642 670.7 1669.8 658.2C1697.7 645.7 1725.3 631.3 1753.2 624.2C1781 617 1809 617 1836.8 611.5C1864.7 606 1892.3 595 1906.2 589.5L1920 584L1920 528L1906.2 535.2C1892.3 542.3 1864.7 556.7 1836.8 563.8C1809 571 1781 571 1753.2 578.3C1725.3 585.7 1697.7 600.3 1669.8 613C1642 625.7 1614 636.3 1586.2 641.7C1558.3 647 1530.7 647 1502.8 634.3C1475 621.7 1447 596.3 1419.2 594.5C1391.3 592.7 1363.7 614.3 1335.8 619.8C1308 625.3 1280 614.7 1252.2 607.5C1224.3 600.3 1196.7 596.7 1168.8 598.5C1141 600.3 1113 607.7 1085.2 613C1057.3 618.3 1029.7 621.7 1001.8 625.2C974 628.7 946 632.3 918.2 625.2C890.3 618 862.7 600 834.8 589.2C807 578.3 779 574.7 751.2 574.7C723.3 574.7 695.7 578.3 667.8 573C640 567.7 612 553.3 584.2 549.8C556.3 546.3 528.7 553.7 500.8 557.3C473 561 445 561 417.2 566.3C389.3 571.7 361.7 582.3 333.8 587.7C306 593 278 593 250.2 603.8C222.3 614.7 194.7 636.3 166.8 629.2C139 622 111 586 83.2 571.5C55.3 557 27.7 564 13.8 567.5L0 571Z" fill="#d2d7da"></path><path d="M0 681L13.8 672C27.7 663 55.3 645 83.2 654C111 663 139 699 166.8 708C194.7 717 222.3 699 250.2 693.7C278 688.3 306 695.7 333.8 692.2C361.7 688.7 389.3 674.3 417.2 669C445 663.7 473 667.3 500.8 660.2C528.7 653 556.3 635 584.2 638.5C612 642 640 667 667.8 676C695.7 685 723.3 678 751.2 674.5C779 671 807 671 834.8 683.5C862.7 696 890.3 721 918.2 730C946 739 974 732 1001.8 723C1029.7 714 1057.3 703 1085.2 701.2C1113 699.3 1141 706.7 1168.8 708.5C1196.7 710.3 1224.3 706.7 1252.2 710.2C1280 713.7 1308 724.3 1335.8 720.7C1363.7 717 1391.3 699 1419.2 702.7C1447 706.3 1475 731.7 1502.8 739C1530.7 746.3 1558.3 735.7 1586.2 726.7C1614 717.7 1642 710.3 1669.8 697.7C1697.7 685 1725.3 667 1753.2 661.7C1781 656.3 1809 663.7 1836.8 660C1864.7 656.3 1892.3 641.7 1906.2 634.3L1920 627L1920 582L1906.2 587.5C1892.3 593 1864.7 604 1836.8 609.5C1809 615 1781 615 1753.2 622.2C1725.3 629.3 1697.7 643.7 1669.8 656.2C1642 668.7 1614 679.3 1586.2 688.3C1558.3 697.3 1530.7 704.7 1502.8 693.8C1475 683 1447 654 1419.2 652.2C1391.3 650.3 1363.7 675.7 1335.8 683C1308 690.3 1280 679.7 1252.2 672.5C1224.3 665.3 1196.7 661.7 1168.8 659.8C1141 658 1113 658 1085.2 661.5C1057.3 665 1029.7 672 1001.8 677.3C974 682.7 946 686.3 918.2 679.2C890.3 672 862.7 654 834.8 645C807 636 779 636 751.2 637.8C723.3 639.7 695.7 643.3 667.8 634.3C640 625.3 612 603.7 584.2 598.3C556.3 593 528.7 604 500.8 611.2C473 618.3 445 621.7 417.2 628.8C389.3 636 361.7 647 333.8 650.7C306 654.3 278 650.7 250.2 657.8C222.3 665 194.7 683 166.8 674C139 665 111 629 83.2 618.2C55.3 607.3 27.7 621.7 13.8 628.8L0 636Z" fill="#98a3a7"></path><path d="M0 779L13.8 780.7C27.7 782.3 55.3 785.7 83.2 798.2C111 810.7 139 832.3 166.8 839.7C194.7 847 222.3 840 250.2 834.7C278 829.3 306 825.7 333.8 823.8C361.7 822 389.3 822 417.2 823.8C445 825.7 473 829.3 500.8 814.8C528.7 800.3 556.3 767.7 584.2 764C612 760.3 640 785.7 667.8 798.3C695.7 811 723.3 811 751.2 809.2C779 807.3 807 803.7 834.8 810.8C862.7 818 890.3 836 918.2 848.7C946 861.3 974 868.7 1001.8 863.3C1029.7 858 1057.3 840 1085.2 840C1113 840 1141 858 1168.8 852.5C1196.7 847 1224.3 818 1252.2 819.8C1280 821.7 1308 854.3 1335.8 859.8C1363.7 865.3 1391.3 843.7 1419.2 836.3C1447 829 1475 836 1502.8 839.5C1530.7 843 1558.3 843 1586.2 841.3C1614 839.7 1642 836.3 1669.8 820.2C1697.7 804 1725.3 775 1753.2 767.7C1781 760.3 1809 774.7 1836.8 771.2C1864.7 767.7 1892.3 746.3 1906.2 735.7L1920 725L1920 625L1906.2 632.3C1892.3 639.7 1864.7 654.3 1836.8 658C1809 661.7 1781 654.3 1753.2 659.7C1725.3 665 1697.7 683 1669.8 695.7C1642 708.3 1614 715.7 1586.2 724.7C1558.3 733.7 1530.7 744.3 1502.8 737C1475 729.7 1447 704.3 1419.2 700.7C1391.3 697 1363.7 715 1335.8 718.7C1308 722.3 1280 711.7 1252.2 708.2C1224.3 704.7 1196.7 708.3 1168.8 706.5C1141 704.7 1113 697.3 1085.2 699.2C1057.3 701 1029.7 712 1001.8 721C974 730 946 737 918.2 728C890.3 719 862.7 694 834.8 681.5C807 669 779 669 751.2 672.5C723.3 676 695.7 683 667.8 674C640 665 612 640 584.2 636.5C556.3 633 528.7 651 500.8 658.2C473 665.3 445 661.7 417.2 667C389.3 672.3 361.7 686.7 333.8 690.2C306 693.7 278 686.3 250.2 691.7C222.3 697 194.7 715 166.8 706C139 697 111 661 83.2 652C55.3 643 27.7 661 13.8 670L0 679Z" fill="#637374"></path><path d="M0 833L13.8 836.5C27.7 840 55.3 847 83.2 859.5C111 872 139 890 166.8 893.7C194.7 897.3 222.3 886.7 250.2 884.8C278 883 306 890 333.8 890C361.7 890 389.3 883 417.2 881.3C445 879.7 473 883.3 500.8 872.5C528.7 861.7 556.3 836.3 584.2 832.7C612 829 640 847 667.8 859.7C695.7 872.3 723.3 879.7 751.2 877.8C779 876 807 865 834.8 868.5C862.7 872 890.3 890 918.2 904.5C946 919 974 930 1001.8 926.5C1029.7 923 1057.3 905 1085.2 903.2C1113 901.3 1141 915.7 1168.8 906.7C1196.7 897.7 1224.3 865.3 1252.2 867.2C1280 869 1308 905 1335.8 910.3C1363.7 915.7 1391.3 890.3 1419.2 886.7C1447 883 1475 901 1502.8 908.2C1530.7 915.3 1558.3 911.7 1586.2 906.3C1614 901 1642 894 1669.8 874.2C1697.7 854.3 1725.3 821.7 1753.2 814.3C1781 807 1809 825 1836.8 826.8C1864.7 828.7 1892.3 814.3 1906.2 807.2L1920 800L1920 723L1906.2 733.7C1892.3 744.3 1864.7 765.7 1836.8 769.2C1809 772.7 1781 758.3 1753.2 765.7C1725.3 773 1697.7 802 1669.8 818.2C1642 834.3 1614 837.7 1586.2 839.3C1558.3 841 1530.7 841 1502.8 837.5C1475 834 1447 827 1419.2 834.3C1391.3 841.7 1363.7 863.3 1335.8 857.8C1308 852.3 1280 819.7 1252.2 817.8C1224.3 816 1196.7 845 1168.8 850.5C1141 856 1113 838 1085.2 838C1057.3 838 1029.7 856 1001.8 861.3C974 866.7 946 859.3 918.2 846.7C890.3 834 862.7 816 834.8 808.8C807 801.7 779 805.3 751.2 807.2C723.3 809 695.7 809 667.8 796.3C640 783.7 612 758.3 584.2 762C556.3 765.7 528.7 798.3 500.8 812.8C473 827.3 445 823.7 417.2 821.8C389.3 820 361.7 820 333.8 821.8C306 823.7 278 827.3 250.2 832.7C222.3 838 194.7 845 166.8 837.7C139 830.3 111 808.7 83.2 796.2C55.3 783.7 27.7 780.3 13.8 778.7L0 777Z" fill="#324543"></path><path d="M0 1081L13.8 1081C27.7 1081 55.3 1081 83.2 1081C111 1081 139 1081 166.8 1081C194.7 1081 222.3 1081 250.2 1081C278 1081 306 1081 333.8 1081C361.7 1081 389.3 1081 417.2 1081C445 1081 473 1081 500.8 1081C528.7 1081 556.3 1081 584.2 1081C612 1081 640 1081 667.8 1081C695.7 1081 723.3 1081 751.2 1081C779 1081 807 1081 834.8 1081C862.7 1081 890.3 1081 918.2 1081C946 1081 974 1081 1001.8 1081C1029.7 1081 1057.3 1081 1085.2 1081C1113 1081 1141 1081 1168.8 1081C1196.7 1081 1224.3 1081 1252.2 1081C1280 1081 1308 1081 1335.8 1081C1363.7 1081 1391.3 1081 1419.2 1081C1447 1081 1475 1081 1502.8 1081C1530.7 1081 1558.3 1081 1586.2 1081C1614 1081 1642 1081 1669.8 1081C1697.7 1081 1725.3 1081 1753.2 1081C1781 1081 1809 1081 1836.8 1081C1864.7 1081 1892.3 1081 1906.2 1081L1920 1081L1920 798L1906.2 805.2C1892.3 812.3 1864.7 826.7 1836.8 824.8C1809 823 1781 805 1753.2 812.3C1725.3 819.7 1697.7 852.3 1669.8 872.2C1642 892 1614 899 1586.2 904.3C1558.3 909.7 1530.7 913.3 1502.8 906.2C1475 899 1447 881 1419.2 884.7C1391.3 888.3 1363.7 913.7 1335.8 908.3C1308 903 1280 867 1252.2 865.2C1224.3 863.3 1196.7 895.7 1168.8 904.7C1141 913.7 1113 899.3 1085.2 901.2C1057.3 903 1029.7 921 1001.8 924.5C974 928 946 917 918.2 902.5C890.3 888 862.7 870 834.8 866.5C807 863 779 874 751.2 875.8C723.3 877.7 695.7 870.3 667.8 857.7C640 845 612 827 584.2 830.7C556.3 834.3 528.7 859.7 500.8 870.5C473 881.3 445 877.7 417.2 879.3C389.3 881 361.7 888 333.8 888C306 888 278 881 250.2 882.8C222.3 884.7 194.7 895.3 166.8 891.7C139 888 111 870 83.2 857.5C55.3 845 27.7 838 13.8 834.5L0 831Z" fill="#081c15"></path></svg>