<svg id="visual" viewBox="0 0 1800 500" width="1800" height="500" xmlns="http://www.w3.org/2000/svg" xmlns:xlink="http://www.w3.org/1999/xlink" version="1.1"><path d="M0 51L18.8 42.5C37.7 34 75.3 17 112.8 19.5C150.3 22 187.7 44 225.2 44C262.7 44 300.3 22 337.8 13.7C375.3 5.3 412.7 10.7 450.2 19.2C487.7 27.7 525.3 39.3 562.8 48.5C600.3 57.7 637.7 64.3 675.2 62.7C712.7 61 750.3 51 787.8 44.3C825.3 37.7 862.7 34.3 900.2 29.3C937.7 24.3 975.3 17.7 1012.8 24.3C1050.3 31 1087.7 51 1125.2 56.8C1162.7 62.7 1200.3 54.3 1237.8 56.8C1275.3 59.3 1312.7 72.7 1350.2 71C1387.7 69.3 1425.3 52.7 1462.8 46C1500.3 39.3 1537.7 42.7 1575.2 39.3C1612.7 36 1650.3 26 1687.8 23.5C1725.3 21 1762.7 26 1781.3 28.5L1800 31L1800 0L1781.3 0C1762.7 0 1725.3 0 1687.8 0C1650.3 0 1612.7 0 1575.2 0C1537.7 0 1500.3 0 1462.8 0C1425.3 0 1387.7 0 1350.2 0C1312.7 0 1275.3 0 1237.8 0C1200.3 0 1162.7 0 1125.2 0C1087.7 0 1050.3 0 1012.8 0C975.3 0 937.7 0 900.2 0C862.7 0 825.3 0 787.8 0C750.3 0 712.7 0 675.2 0C637.7 0 600.3 0 562.8 0C525.3 0 487.7 0 450.2 0C412.7 0 375.3 0 337.8 0C300.3 0 262.7 0 225.2 0C187.7 0 150.3 0 112.8 0C75.3 0 37.7 0 18.8 0L0 0Z" fill="#081c15"></path><path d="M0 131L18.8 117.7C37.7 104.3 75.3 77.7 112.8 78.5C150.3 79.3 187.7 107.7 225.2 111.8C262.7 116 300.3 96 337.8 85.2C375.3 74.3 412.7 72.7 450.2 71C487.7 69.3 525.3 67.7 562.8 76C600.3 84.3 637.7 102.7 675.2 108.5C712.7 114.3 750.3 107.7 787.8 99.3C825.3 91 862.7 81 900.2 78.5C937.7 76 975.3 81 1012.8 90.2C1050.3 99.3 1087.7 112.7 1125.2 119.3C1162.7 126 1200.3 126 1237.8 124.3C1275.3 122.7 1312.7 119.3 1350.2 110.2C1387.7 101 1425.3 86 1462.8 81C1500.3 76 1537.7 81 1575.2 90.2C1612.7 99.3 1650.3 112.7 1687.8 112.7C1725.3 112.7 1762.7 99.3 1781.3 92.7L1800 86L1800 29L1781.3 26.5C1762.7 24 1725.3 19 1687.8 21.5C1650.3 24 1612.7 34 1575.2 37.3C1537.7 40.7 1500.3 37.3 1462.8 44C1425.3 50.7 1387.7 67.3 1350.2 69C1312.7 70.7 1275.3 57.3 1237.8 54.8C1200.3 52.3 1162.7 60.7 1125.2 54.8C1087.7 49 1050.3 29 1012.8 22.3C975.3 15.7 937.7 22.3 900.2 27.3C862.7 32.3 825.3 35.7 787.8 42.3C750.3 49 712.7 59 675.2 60.7C637.7 62.3 600.3 55.7 562.8 46.5C525.3 37.3 487.7 25.7 450.2 17.5C412.7 9.3 375.3 4.7 337.8 13C300.3 21.3 262.7 42.7 225.2 42.7C187.7 42.7 150.3 21.3 112.8 18.8C75.3 16.3 37.7 32.7 18.8 40.8L0 49Z" fill="#324543"></path><path d="M0 156L18.8 139.3C37.7 122.7 75.3 89.3 112.8 88.5C150.3 87.7 187.7 119.3 225.2 122.7C262.7 126 300.3 101 337.8 87.7C375.3 74.3 412.7 72.7 450.2 76.8C487.7 81 525.3 91 562.8 101.8C600.3 112.7 637.7 124.3 675.2 130.2C712.7 136 750.3 136 787.8 127.7C825.3 119.3 862.7 102.7 900.2 101C937.7 99.3 975.3 112.7 1012.8 120.2C1050.3 127.7 1087.7 129.3 1125.2 134.3C1162.7 139.3 1200.3 147.7 1237.8 145.2C1275.3 142.7 1312.7 129.3 1350.2 116C1387.7 102.7 1425.3 89.3 1462.8 85.2C1500.3 81 1537.7 86 1575.2 96C1612.7 106 1650.3 121 1687.8 126.8C1725.3 132.7 1762.7 129.3 1781.3 127.7L1800 126L1800 84L1781.3 90.7C1762.7 97.3 1725.3 110.7 1687.8 110.7C1650.3 110.7 1612.7 97.3 1575.2 88.2C1537.7 79 1500.3 74 1462.8 79C1425.3 84 1387.7 99 1350.2 108.2C1312.7 117.3 1275.3 120.7 1237.8 122.3C1200.3 124 1162.7 124 1125.2 117.3C1087.7 110.7 1050.3 97.3 1012.8 88.2C975.3 79 937.7 74 900.2 76.5C862.7 79 825.3 89 787.8 97.3C750.3 105.7 712.7 112.3 675.2 106.5C637.7 100.7 600.3 82.3 562.8 74C525.3 65.7 487.7 67.3 450.2 69C412.7 70.7 375.3 72.3 337.8 83.2C300.3 94 262.7 114 225.2 109.8C187.7 105.7 150.3 77.3 112.8 76.5C75.3 75.7 37.7 102.3 18.8 115.7L0 129Z" fill="#637374"></path><path d="M0 181L18.8 182.7C37.7 184.3 75.3 187.7 112.8 197.7C150.3 207.7 187.7 224.3 225.2 205.2C262.7 186 300.3 131 337.8 112.7C375.3 94.3 412.7 112.7 450.2 133.5C487.7 154.3 525.3 177.7 562.8 185.2C600.3 192.7 637.7 184.3 675.2 190.2C712.7 196 750.3 216 787.8 202.7C825.3 189.3 862.7 142.7 900.2 138.5C937.7 134.3 975.3 172.7 1012.8 181C1050.3 189.3 1087.7 167.7 1125.2 171C1162.7 174.3 1200.3 202.7 1237.8 214.3C1275.3 226 1312.7 221 1350.2 205.2C1387.7 189.3 1425.3 162.7 1462.8 153.5C1500.3 144.3 1537.7 152.7 1575.2 169.3C1612.7 186 1650.3 211 1687.8 205.2C1725.3 199.3 1762.7 162.7 1781.3 144.3L1800 126L1800 124L1781.3 125.7C1762.7 127.3 1725.3 130.7 1687.8 124.8C1650.3 119 1612.7 104 1575.2 94C1537.7 84 1500.3 79 1462.8 83.2C1425.3 87.3 1387.7 100.7 1350.2 114C1312.7 127.3 1275.3 140.7 1237.8 143.2C1200.3 145.7 1162.7 137.3 1125.2 132.3C1087.7 127.3 1050.3 125.7 1012.8 118.2C975.3 110.7 937.7 97.3 900.2 99C862.7 100.7 825.3 117.3 787.8 125.7C750.3 134 712.7 134 675.2 128.2C637.7 122.3 600.3 110.7 562.8 99.8C525.3 89 487.7 79 450.2 74.8C412.7 70.7 375.3 72.3 337.8 85.7C300.3 99 262.7 124 225.2 120.7C187.7 117.3 150.3 85.7 112.8 86.5C75.3 87.3 37.7 120.7 18.8 137.3L0 154Z" fill="#98a3a7"></path><path d="M0 241L18.8 238.5C37.7 236 75.3 231 112.8 233.5C150.3 236 187.7 246 225.2 221C262.7 196 300.3 136 337.8 123.5C375.3 111 412.7 146 450.2 167.7C487.7 189.3 525.3 197.7 562.8 201.8C600.3 206 637.7 206 675.2 212.7C712.7 219.3 750.3 232.7 787.8 219.3C825.3 206 862.7 166 900.2 164.3C937.7 162.7 975.3 199.3 1012.8 207.7C1050.3 216 1087.7 196 1125.2 199.3C1162.7 202.7 1200.3 229.3 1237.8 236C1275.3 242.7 1312.7 229.3 1350.2 212.7C1387.7 196 1425.3 176 1462.8 166.8C1500.3 157.7 1537.7 159.3 1575.2 172.7C1612.7 186 1650.3 211 1687.8 208.5C1725.3 206 1762.7 176 1781.3 161L1800 146L1800 124L1781.3 142.3C1762.7 160.7 1725.3 197.3 1687.8 203.2C1650.3 209 1612.7 184 1575.2 167.3C1537.7 150.7 1500.3 142.3 1462.8 151.5C1425.3 160.7 1387.7 187.3 1350.2 203.2C1312.7 219 1275.3 224 1237.8 212.3C1200.3 200.7 1162.7 172.3 1125.2 169C1087.7 165.7 1050.3 187.3 1012.8 179C975.3 170.7 937.7 132.3 900.2 136.5C862.7 140.7 825.3 187.3 787.8 200.7C750.3 214 712.7 194 675.2 188.2C637.7 182.3 600.3 190.7 562.8 183.2C525.3 175.7 487.7 152.3 450.2 131.5C412.7 110.7 375.3 92.3 337.8 110.7C300.3 129 262.7 184 225.2 203.2C187.7 222.3 150.3 205.7 112.8 195.7C75.3 185.7 37.7 182.3 18.8 180.7L0 179Z" fill="#d2d7da"></path><path d="M0 286L18.8 279.3C37.7 272.7 75.3 259.3 112.8 259.3C150.3 259.3 187.7 272.7 225.2 253.5C262.7 234.3 300.3 182.7 337.8 172.7C375.3 162.7 412.7 194.3 450.2 213.5C487.7 232.7 525.3 239.3 562.8 240.2C600.3 241 637.7 236 675.2 241.8C712.7 247.7 750.3 264.3 787.8 253.5C825.3 242.7 862.7 204.3 900.2 204.3C937.7 204.3 975.3 242.7 1012.8 246.8C1050.3 251 1087.7 221 1125.2 219.3C1162.7 217.7 1200.3 244.3 1237.8 252.7C1275.3 261 1312.7 251 1350.2 232.7C1387.7 214.3 1425.3 187.7 1462.8 181.8C1500.3 176 1537.7 191 1575.2 209.3C1612.7 227.7 1650.3 249.3 1687.8 243.5C1725.3 237.7 1762.7 204.3 1781.3 187.7L1800 171L1800 144L1781.3 159C1762.7 174 1725.3 204 1687.8 206.5C1650.3 209 1612.7 184 1575.2 170.7C1537.7 157.3 1500.3 155.7 1462.8 164.8C1425.3 174 1387.7 194 1350.2 210.7C1312.7 227.3 1275.3 240.7 1237.8 234C1200.3 227.3 1162.7 200.7 1125.2 197.3C1087.7 194 1050.3 214 1012.8 205.7C975.3 197.3 937.7 160.7 900.2 162.3C862.7 164 825.3 204 787.8 217.3C750.3 230.7 712.7 217.3 675.2 210.7C637.7 204 600.3 204 562.8 199.8C525.3 195.7 487.7 187.3 450.2 165.7C412.7 144 375.3 109 337.8 121.5C300.3 134 262.7 194 225.2 219C187.7 244 150.3 234 112.8 231.5C75.3 229 37.7 234 18.8 236.5L0 239Z" fill="#e9ecef"></path><path d="M0 381L18.8 381C37.7 381 75.3 381 112.8 372.7C150.3 364.3 187.7 347.7 225.2 340.2C262.7 332.7 300.3 334.3 337.8 339.3C375.3 344.3 412.7 352.7 450.2 355.2C487.7 357.7 525.3 354.3 562.8 347.7C600.3 341 637.7 331 675.2 320.2C712.7 309.3 750.3 297.7 787.8 286C825.3 274.3 862.7 262.7 900.2 274.3C937.7 286 975.3 321 1012.8 325.2C1050.3 329.3 1087.7 302.7 1125.2 305.2C1162.7 307.7 1200.3 339.3 1237.8 356.8C1275.3 374.3 1312.7 377.7 1350.2 383.5C1387.7 389.3 1425.3 397.7 1462.8 379.3C1500.3 361 1537.7 316 1575.2 296.8C1612.7 277.7 1650.3 284.3 1687.8 284.3C1725.3 284.3 1762.7 277.7 1781.3 274.3L1800 271L1800 169L1781.3 185.7C1762.7 202.3 1725.3 235.7 1687.8 241.5C1650.3 247.3 1612.7 225.7 1575.2 207.3C1537.7 189 1500.3 174 1462.8 179.8C1425.3 185.7 1387.7 212.3 1350.2 230.7C1312.7 249 1275.3 259 1237.8 250.7C1200.3 242.3 1162.7 215.7 1125.2 217.3C1087.7 219 1050.3 249 1012.8 244.8C975.3 240.7 937.7 202.3 900.2 202.3C862.7 202.3 825.3 240.7 787.8 251.5C750.3 262.3 712.7 245.7 675.2 239.8C637.7 234 600.3 239 562.8 238.2C525.3 237.3 487.7 230.7 450.2 211.5C412.7 192.3 375.3 160.7 337.8 170.7C300.3 180.7 262.7 232.3 225.2 251.5C187.7 270.7 150.3 257.3 112.8 257.3C75.3 257.3 37.7 270.7 18.8 277.3L0 284Z" fill="#e9ecef"></path><path d="M0 406L18.8 406.8C37.7 407.7 75.3 409.3 112.8 402.7C150.3 396 187.7 381 225.2 380.2C262.7 379.3 300.3 392.7 337.8 400.2C375.3 407.7 412.7 409.3 450.2 411C487.7 412.7 525.3 414.3 562.8 399.3C600.3 384.3 637.7 352.7 675.2 343.5C712.7 334.3 750.3 347.7 787.8 341C825.3 334.3 862.7 307.7 900.2 312.7C937.7 317.7 975.3 354.3 1012.8 365.2C1050.3 376 1087.7 361 1125.2 363.5C1162.7 366 1200.3 386 1237.8 400.2C1275.3 414.3 1312.7 422.7 1350.2 424.3C1387.7 426 1425.3 421 1462.8 402.7C1500.3 384.3 1537.7 352.7 1575.2 332.7C1612.7 312.7 1650.3 304.3 1687.8 302.7C1725.3 301 1762.7 306 1781.3 308.5L1800 311L1800 269L1781.3 272.3C1762.7 275.7 1725.3 282.3 1687.8 282.3C1650.3 282.3 1612.7 275.7 1575.2 294.8C1537.7 314 1500.3 359 1462.8 377.3C1425.3 395.7 1387.7 387.3 1350.2 381.5C1312.7 375.7 1275.3 372.3 1237.8 354.8C1200.3 337.3 1162.7 305.7 1125.2 303.2C1087.7 300.7 1050.3 327.3 1012.8 323.2C975.3 319 937.7 284 900.2 272.3C862.7 260.7 825.3 272.3 787.8 284C750.3 295.7 712.7 307.3 675.2 318.2C637.7 329 600.3 339 562.8 345.7C525.3 352.3 487.7 355.7 450.2 353.2C412.7 350.7 375.3 342.3 337.8 337.3C300.3 332.3 262.7 330.7 225.2 338.2C187.7 345.7 150.3 362.3 112.8 370.7C75.3 379 37.7 379 18.8 379L0 379Z" fill="#d2d7da"></path><path d="M0 421L18.8 421.8C37.7 422.7 75.3 424.3 112.8 416C150.3 407.7 187.7 389.3 225.2 394.3C262.7 399.3 300.3 427.7 337.8 436.8C375.3 446 412.7 436 450.2 430.2C487.7 424.3 525.3 422.7 562.8 412.7C600.3 402.7 637.7 384.3 675.2 376C712.7 367.7 750.3 369.3 787.8 361.8C825.3 354.3 862.7 337.7 900.2 345.2C937.7 352.7 975.3 384.3 1012.8 393.5C1050.3 402.7 1087.7 389.3 1125.2 396C1162.7 402.7 1200.3 429.3 1237.8 444.3C1275.3 459.3 1312.7 462.7 1350.2 458.5C1387.7 454.3 1425.3 442.7 1462.8 426.8C1500.3 411 1537.7 391 1575.2 370.2C1612.7 349.3 1650.3 327.7 1687.8 317.7C1725.3 307.7 1762.7 309.3 1781.3 310.2L1800 311L1800 309L1781.3 306.5C1762.7 304 1725.3 299 1687.8 300.7C1650.3 302.3 1612.7 310.7 1575.2 330.7C1537.7 350.7 1500.3 382.3 1462.8 400.7C1425.3 419 1387.7 424 1350.2 422.3C1312.7 420.7 1275.3 412.3 1237.8 398.2C1200.3 384 1162.7 364 1125.2 361.5C1087.7 359 1050.3 374 1012.8 363.2C975.3 352.3 937.7 315.7 900.2 310.7C862.7 305.7 825.3 332.3 787.8 339C750.3 345.7 712.7 332.3 675.2 341.5C637.7 350.7 600.3 382.3 562.8 397.3C525.3 412.3 487.7 410.7 450.2 409C412.7 407.3 375.3 405.7 337.8 398.2C300.3 390.7 262.7 377.3 225.2 378.2C187.7 379 150.3 394 112.8 400.7C75.3 407.3 37.7 405.7 18.8 404.8L0 404Z" fill="#98a3a7"></path><path d="M0 441L18.8 443.5C37.7 446 75.3 451 112.8 443.5C150.3 436 187.7 416 225.2 419.3C262.7 422.7 300.3 449.3 337.8 454.3C375.3 459.3 412.7 442.7 450.2 439.3C487.7 436 525.3 446 562.8 441.8C600.3 437.7 637.7 419.3 675.2 405.2C712.7 391 750.3 381 787.8 374.3C825.3 367.7 862.7 364.3 900.2 377.7C937.7 391 975.3 421 1012.8 426C1050.3 431 1087.7 411 1125.2 413.5C1162.7 416 1200.3 441 1237.8 453.5C1275.3 466 1312.7 466 1350.2 464.3C1387.7 462.7 1425.3 459.3 1462.8 447.7C1500.3 436 1537.7 416 1575.2 396.8C1612.7 377.7 1650.3 359.3 1687.8 351C1725.3 342.7 1762.7 344.3 1781.3 345.2L1800 346L1800 309L1781.3 308.2C1762.7 307.3 1725.3 305.7 1687.8 315.7C1650.3 325.7 1612.7 347.3 1575.2 368.2C1537.7 389 1500.3 409 1462.8 424.8C1425.3 440.7 1387.7 452.3 1350.2 456.5C1312.7 460.7 1275.3 457.3 1237.8 442.3C1200.3 427.3 1162.7 400.7 1125.2 394C1087.7 387.3 1050.3 400.7 1012.8 391.5C975.3 382.3 937.7 350.7 900.2 343.2C862.7 335.7 825.3 352.3 787.8 359.8C750.3 367.3 712.7 365.7 675.2 374C637.7 382.3 600.3 400.7 562.8 410.7C525.3 420.7 487.7 422.3 450.2 428.2C412.7 434 375.3 444 337.8 434.8C300.3 425.7 262.7 397.3 225.2 392.3C187.7 387.3 150.3 405.7 112.8 414C75.3 422.3 37.7 420.7 18.8 419.8L0 419Z" fill="#637374"></path><path d="M0 446L18.8 449.3C37.7 452.7 75.3 459.3 112.8 456.8C150.3 454.3 187.7 442.7 225.2 444.3C262.7 446 300.3 461 337.8 461.8C375.3 462.7 412.7 449.3 450.2 449.3C487.7 449.3 525.3 462.7 562.8 462.7C600.3 462.7 637.7 449.3 675.2 432.7C712.7 416 750.3 396 787.8 388.5C825.3 381 862.7 386 900.2 402.7C937.7 419.3 975.3 447.7 1012.8 448.5C1050.3 449.3 1087.7 422.7 1125.2 421.8C1162.7 421 1200.3 446 1237.8 460.2C1275.3 474.3 1312.7 477.7 1350.2 481.8C1387.7 486 1425.3 491 1462.8 480.2C1500.3 469.3 1537.7 442.7 1575.2 421C1612.7 399.3 1650.3 382.7 1687.8 375.2C1725.3 367.7 1762.7 369.3 1781.3 370.2L1800 371L1800 344L1781.3 343.2C1762.7 342.3 1725.3 340.7 1687.8 349C1650.3 357.3 1612.7 375.7 1575.2 394.8C1537.7 414 1500.3 434 1462.8 445.7C1425.3 457.3 1387.7 460.7 1350.2 462.3C1312.7 464 1275.3 464 1237.8 451.5C1200.3 439 1162.7 414 1125.2 411.5C1087.7 409 1050.3 429 1012.8 424C975.3 419 937.7 389 900.2 375.7C862.7 362.3 825.3 365.7 787.8 372.3C750.3 379 712.7 389 675.2 403.2C637.7 417.3 600.3 435.7 562.8 439.8C525.3 444 487.7 434 450.2 437.3C412.7 440.7 375.3 457.3 337.8 452.3C300.3 447.3 262.7 420.7 225.2 417.3C187.7 414 150.3 434 112.8 441.5C75.3 449 37.7 444 18.8 441.5L0 439Z" fill="#324543"></path><path d="M0 501L18.8 501C37.7 501 75.3 501 112.8 501C150.3 501 187.7 501 225.2 501C262.7 501 300.3 501 337.8 501C375.3 501 412.7 501 450.2 501C487.7 501 525.3 501 562.8 501C600.3 501 637.7 501 675.2 501C712.7 501 750.3 501 787.8 501C825.3 501 862.7 501 900.2 501C937.7 501 975.3 501 1012.8 501C1050.3 501 1087.7 501 1125.2 501C1162.7 501 1200.3 501 1237.8 501C1275.3 501 1312.7 501 1350.2 501C1387.7 501 1425.3 501 1462.8 501C1500.3 501 1537.7 501 1575.2 501C1612.7 501 1650.3 501 1687.8 501C1725.3 501 1762.7 501 1781.3 501L1800 501L1800 369L1781.3 368.2C1762.7 367.3 1725.3 365.7 1687.8 373.2C1650.3 380.7 1612.7 397.3 1575.2 419C1537.7 440.7 1500.3 467.3 1462.8 478.2C1425.3 489 1387.7 484 1350.2 479.8C1312.7 475.7 1275.3 472.3 1237.8 458.2C1200.3 444 1162.7 419 1125.2 419.8C1087.7 420.7 1050.3 447.3 1012.8 446.5C975.3 445.7 937.7 417.3 900.2 400.7C862.7 384 825.3 379 787.8 386.5C750.3 394 712.7 414 675.2 430.7C637.7 447.3 600.3 460.7 562.8 460.7C525.3 460.7 487.7 447.3 450.2 447.3C412.7 447.3 375.3 460.7 337.8 459.8C300.3 459 262.7 444 225.2 442.3C187.7 440.7 150.3 452.3 112.8 454.8C75.3 457.3 37.7 450.7 18.8 447.3L0 444Z" fill="#081c15"></path></svg>