<?xml version="1.0" encoding="UTF-8"?>
<svg width="752pt" height="752pt" version="1.1" viewBox="0 0 752 752" xmlns="http://www.w3.org/2000/svg">
 <g>
  <path d="m487 212.27c7.1836-1.8555 13.41-6.3398 17.441-12.566 4.0352-6.2266 5.582-13.742 4.3398-21.055-1.2422-7.3164-5.1875-13.895-11.055-18.438-5.8633-4.543-13.223-6.7188-20.617-6.0938-7.3906 0.62109-14.281 4-19.301 9.4609-5.0195 5.4648-7.8047 12.613-7.8047 20.031h14.801-0.003906c0-3.9258 1.5586-7.6914 4.3359-10.465 2.7734-2.7773 6.5391-4.3359 10.465-4.3359 3.9258 0 7.6875 1.5586 10.465 4.3359 2.7734 2.7734 4.3359 6.5391 4.3359 10.465s-1.5625 7.6875-4.3359 10.465c-2.7773 2.7734-6.5391 4.3359-10.465 4.3359h-7.3984v29.598h14.801z"/>
  <path d="m176.21 405.6h14.801c4.0859 0 7.3984 4.0859 7.3984 7.3984v29.598c0 4.0859-3.3125 7.3984-7.3984 7.3984h-14.801c-4.0859 0-7.3984-4.0859-7.3984-7.3984v-29.598c0-4.0859 3.3125-7.3984 7.3984-7.3984z"/>
  <path d="m316.8 330.69v35.297l59.199 24.219 59.199-24.219v-32.559c-49.238 9.8633-73.258-6.5547-88.055-20.336h-0.007813c-7.9492 8.9844-18.59 15.156-30.336 17.598zm81.395 23.113h14.801v14.801h-14.801zm-44.398 14.801h-14.797v-14.801h14.801z"/>
  <path d="m218.05 341.59-5.0625 17.73 91.352 17.566z"/>
  <path d="m539.02 359.32-5.0586-17.73-86.289 35.297z"/>
  <path d="m302 324.2c0-4.0859 3.3125-7.3984 7.3984-7.3984 12.688-1.0586 24.125-8.0586 30.836-18.879 1.2305-1.8438 3.2227-3.0391 5.4297-3.2539 2.2031-0.21875 4.3906 0.5625 5.957 2.1289 14.363 14.363 34.039 34.039 89.168 20.223v0.003906c2.2109-0.55859 4.5586-0.0625 6.3555 1.3398 1.8008 1.4023 2.8516 3.5547 2.8516 5.8359v35.754l14.801-6.0547-0.003906-22.301c-0.58594-23.363-10.129-45.609-26.656-62.137s-38.773-26.07-62.141-26.656c-23.711-0.53906-46.609 8.6445-63.379 25.414-16.77 16.77-25.953 39.668-25.418 63.379v22.273l14.801 6.0547z"/>
  <path d="m374.68 405.47-6.082-1.1289v177.29l7.3984 1.4219 7.3984-1.4219 0.003906-177.32-6.0078 1.1562h-0.003906c-0.89844 0.085938-1.8047 0.089844-2.707 0.003906z"/>
  <path d="m538.79 442.6v-29.598c0-5.8867 2.3398-11.535 6.5039-15.695 4.1641-4.1641 9.8086-6.5039 15.695-6.5039v-20.637l-162.79 31.309v177.32l162.79-31.309v-82.684c-5.8867 0-11.531-2.3359-15.695-6.5s-6.5039-9.8125-6.5039-15.699zm-125.79-22.199c0-3.4883 2.4336-6.5039 5.8438-7.2344l103.6-22.199 3.1094 14.473-97.75 20.949v23.613h-14.801zm133.2 111c-0.003906 3.5898-2.5781 6.6562-6.1133 7.2812l-125.8 22.199-2.5742-14.562 119.68-21.125v-38.191h14.801z"/>
  <path d="m560.99 405.6h14.801c4.0859 0 7.3984 4.0859 7.3984 7.3984v29.598c0 4.0859-3.3125 7.3984-7.3984 7.3984h-14.801c-4.0859 0-7.3984-4.0859-7.3984-7.3984v-29.598c0-4.0859 3.3125-7.3984 7.3984-7.3984z"/>
  <path d="m191.01 390.8c5.8867 0 11.535 2.3398 15.699 6.5039 4.1602 4.1602 6.5 9.8086 6.5 15.695v29.598c0 5.8867-2.3398 11.535-6.5 15.699-4.1641 4.1641-9.8125 6.5-15.699 6.5v82.684l162.79 31.309v-177.32l-162.79-31.309zm38.551 0.16406 103.6 22.199c3.4102 0.73047 5.8477 3.7461 5.8477 7.2344v51.797l-14.801 0.003907v-45.812l-97.75-20.949zm94.645 110.83v-14.801h14.801v14.801zm14.801 14.801v14.801l-14.801-0.003907v-14.797zm1.2891 29.719-2.5742 14.562-125.8-22.199v-0.003907c-3.5352-0.625-6.1094-3.6914-6.1133-7.2812v-44.398h14.801v38.191z"/>
  <path d="m250.21 213.21c5.2852 0 10.172 2.8203 12.816 7.4023 2.6445 4.5781 2.6445 10.219 0 14.797-2.6445 4.5781-7.5312 7.4023-12.816 7.4023h-7.3984v29.598h14.801l-0.003906-15.738c7.1836-1.8555 13.41-6.3398 17.441-12.566 4.0352-6.2266 5.582-13.742 4.3398-21.055-1.2461-7.3164-5.1875-13.895-11.055-18.438-5.8672-4.5469-13.223-6.7188-20.617-6.0977-7.3906 0.625-14.281 4.0039-19.301 9.4648-5.0195 5.4648-7.8047 12.613-7.8047 20.031h14.801-0.003906c0-3.9258 1.5586-7.6914 4.3359-10.465 2.7734-2.7773 6.5391-4.3359 10.465-4.3359z"/>
  <path d="m242.81 287.2h14.801v14.801h-14.801z"/>
  <path d="m472.2 242.81h14.801v14.801h-14.801z"/>
 </g>
</svg>
