<?xml version="1.0" encoding="utf-8"?><svg xml:space="preserve" viewBox="0 0 100 100" y="0" x="0" xmlns="http://www.w3.org/2000/svg" id="圖層_1" version="1.1" width="200px" height="200px" xmlns:xlink="http://www.w3.org/1999/xlink" style="width:100%;height:100%;background-size:initial;background-repeat-y:initial;background-repeat-x:initial;background-position-y:initial;background-position-x:initial;background-origin:initial;background-color:initial;background-clip:initial;background-attachment:initial;animation-play-state:paused" ><g class="ldl-scale" style="transform-origin:50% 50%;transform:rotate(0deg) scale(0.8, 0.8);animation-play-state:paused" ><radialGradient gradientUnits="userSpaceOnUse" r="44.39" cy="18" cx="44.333" id="SVGID_1_" style="animation-play-state:paused" ><stop stop-color="#f5e6c8" offset="0" style="stop-color:rgb(245, 230, 200);animation-play-state:paused" ></stop>
<stop stop-color="#f5e169" offset="1" style="stop-color:rgb(14, 122, 112);animation-play-state:paused" ></stop></radialGradient>
<path stroke="#333" fill="url(#SVGID_1_)" stroke-miterlimit="10" stroke-width="3.5" d="M77.177 35.677c0-15.584-13.117-28.104-28.912-27.123-13.591.844-24.628 11.947-25.398 25.543-.515 9.092 3.443 17.281 9.875 22.574 1.995 1.642 3.087 4.139 3.087 6.723v.146a7.96 7.96 0 0 0 7.961 7.961h12.42a7.96 7.96 0 0 0 7.961-7.961v-.145c0-2.693 1.267-5.188 3.326-6.923 5.919-4.986 9.68-12.45 9.68-20.795z" style="stroke:rgb(51, 51, 51);animation-play-state:paused" ></path>
<path stroke-miterlimit="10" stroke-width="3.5" stroke="#333" fill="#333" d="M61.601 68H38.399a6.305 6.305 0 0 0-6.305 6.305v4.093a6.305 6.305 0 0 0 6.305 6.305h1.759v0a5.296 5.296 0 0 0 5.296 5.296h9.091a5.296 5.296 0 0 0 5.296-5.296v0H61.6a6.305 6.305 0 0 0 6.305-6.305v-4.093A6.302 6.302 0 0 0 61.601 68z" style="stroke:rgb(51, 51, 51);fill:rgb(51, 51, 51);animation-play-state:paused" ></path>
<path stroke-miterlimit="10" stroke-width="3.5" stroke-linecap="round" fill="none" stroke="#333" stroke-linejoin="round" d="M35.349 37.962l2.812 1.868c.42.577 1.281.577 1.701 0l1.962-2.699a1.052 1.052 0 0 1 1.701 0l1.962 2.699c.42.577 1.281.577 1.701 0l1.962-2.699a1.052 1.052 0 0 1 1.701 0l1.962 2.699c.42.577 1.281.577 1.701 0l1.962-2.699a1.052 1.052 0 0 1 1.701 0l1.962 2.699c.42.577 1.281.577 1.701 0l2.812-1.868" style="stroke:rgb(51, 51, 51);animation-play-state:paused" ></path>
<path d="M44.083 46.833v8.039" stroke-miterlimit="10" stroke-width="3.5" stroke-linecap="round" fill="none" stroke="#333" stroke-linejoin="round" style="stroke:rgb(51, 51, 51);animation-play-state:paused" ></path>
<path d="M55.917 46.833v8.039" stroke-miterlimit="10" stroke-width="3.5" stroke-linecap="round" fill="none" stroke="#333" stroke-linejoin="round" style="stroke:rgb(51, 51, 51);animation-play-state:paused" ></path>
<path d="M37.167 72.833h25.666" stroke-miterlimit="10" stroke-width="3.5" stroke-linecap="round" fill="none" stroke="#e0e0e0" style="stroke:rgb(224, 224, 224);animation-play-state:paused" ></path>
<path d="M37.167 79.833h25.666" stroke-miterlimit="10" stroke-width="3.5" stroke-linecap="round" fill="none" stroke="#e0e0e0" style="stroke:rgb(224, 224, 224);animation-play-state:paused" ></path>
<metadata xmlns:d="https://loading.io/stock/" style="animation-play-state:paused" ><d:name style="animation-play-state:paused" >bulb</d:name>


<d:tags style="animation-play-state:paused" >bulb,light,creative,creativity,idea,brainstorm,bright,luminance,think,smart,thought</d:tags>


<d:license style="animation-play-state:paused" >by</d:license>


<d:slug style="animation-play-state:paused" >lcei68</d:slug></metadata></g><!-- generated by https://loading.io/ --></svg>