<?xml version="1.0" encoding="UTF-8"?>
<svg width="752pt" height="752pt" version="1.1" viewBox="0 0 752 752" xmlns="http://www.w3.org/2000/svg">
 <g>
  <path d="m479.6 263.59v-5.9883c1.9609 0 3.8438-0.77734 5.2305-2.168 1.3906-1.3867 2.168-3.2695 2.168-5.2305v-44.398c0-1.9609-0.77734-3.8438-2.168-5.2344-1.3867-1.3867-3.2695-2.1641-5.2305-2.1641h-14.801v-22.199c0-5.8906-2.3359-11.535-6.5-15.699-4.1641-4.1641-9.8125-6.5-15.699-6.5h-177.59c-9.8125 0.011719-19.215 3.9141-26.152 10.848-6.9336 6.9375-10.836 16.34-10.848 26.148v362.59h-37c-4.0859 0-7.3984 3.3125-7.3984 7.3984v29.602c0 1.9609 0.78125 3.8438 2.168 5.2305 1.3867 1.3867 3.2695 2.168 5.2305 2.168h148c1.9609 0 3.8438-0.78125 5.2305-2.168s2.168-3.2695 2.168-5.2305v-29.602c0-1.9609-0.78125-3.8438-2.168-5.2305s-3.2695-2.168-5.2305-2.168h-96.195v-362.59c0-5.8867 2.3359-11.531 6.5-15.695 4.1641-4.1641 9.8086-6.5039 15.699-6.5039h177.59c1.9648 0 3.8477 0.78125 5.2344 2.168 1.3867 1.3867 2.168 3.2695 2.168 5.2344v22.199h-14.801c-4.0859 0-7.3984 3.3125-7.3984 7.3984v44.398c0 1.9609 0.77734 3.8438 2.1641 5.2305 1.3906 1.3906 3.2734 2.168 5.2344 2.168v5.9883c-11.367 6.5625-19.246 17.816-21.523 30.738-2.2812 12.926 1.2773 26.195 9.7109 36.25 8.4375 10.051 20.887 15.859 34.012 15.859s25.574-5.8086 34.012-15.859c8.4336-10.055 11.992-23.324 9.7109-36.25-2.2773-12.922-10.16-24.176-21.523-30.738zm-148 319.6h-133.19v-14.797h133.19zm111-369.98h29.598v29.598l-29.598 0.003906zm14.801 118.39c-9.1211-0.019531-17.723-4.2422-23.312-11.449-5.5938-7.2031-7.5508-16.582-5.3086-25.422 2.2383-8.8398 8.4336-16.156 16.781-19.824 2.6953-1.1758 4.4375-3.8359 4.4414-6.7773v-10.523h14.801v10.523h-0.003906c0.003906 2.9414 1.7461 5.6016 4.4414 6.7773 8.3477 3.668 14.539 10.984 16.781 19.824 2.2422 8.8398 0.28516 18.219-5.3086 25.422-5.5938 7.207-14.191 11.43-23.312 11.449z"/>
  <path d="m450 361.2h14.801v29.598h-14.801z"/>
  <path d="m494.02 349.1 10.465-10.465 20.93 20.926-10.465 10.465z"/>
  <path d="m516.6 294.61h29.598v14.801h-29.598z"/>
  <path d="m368.6 294.61h29.598v14.801h-29.598z"/>
  <path d="m389.38 359.56 20.93-20.93 10.465 10.465-20.93 20.93z"/>
 </g>
</svg>
