<?xml version="1.0" encoding="UTF-8"?>
<svg width="752pt" height="752pt" version="1.1" viewBox="0 0 752 752" xmlns="http://www.w3.org/2000/svg">
 <path d="m237.78 235.47c6.5352 0 11.836 5.3008 11.836 11.836 0 6.5352-5.3008 11.836-11.836 11.836-12.93 0-24.648-5.2578-33.145-13.754-4.9141-4.8867-8.75-10.867-11.125-17.547h-19.336v50.039h326.06v-50.039h-80.883l0.28516 0.3125 0.51172 0.48438c4.207 4.207 10.031 6.8203 16.453 6.8203 6.5352 0 11.836 5.3008 11.836 11.836 0 6.5352-5.3008 11.836-11.836 11.836-12.957 0-24.691-5.2578-33.188-13.766l-0.68359-0.73828c-4.5625-4.7578-8.125-10.473-10.387-16.793h-72.387l0.76562 0.80859c4.1758 4.207 10.016 6.8047 16.453 6.8047 6.5352 0 11.836 5.3008 11.836 11.836s-5.3008 11.836-11.836 11.836c-12.914 0-24.648-5.2578-33.145-13.754-4.9141-4.8867-8.75-10.867-11.125-17.547h-72.375l0.76562 0.80859c4.1758 4.207 10.016 6.8047 16.465 6.8047zm222.12 158.43c0-6.5352 5.3008-11.836 11.836-11.836 6.5352 0 11.836 5.3008 11.836 11.836v57.027l35.348 25.105c5.3125 3.7773 6.5508 11.152 2.7695 16.465-3.7773 5.3125-11.152 6.5508-16.465 2.7695l-39.598-28.133c-3.4375-2.0742-5.7383-5.8398-5.7383-10.145v-63.109zm11.836-66.66c9.7891 0 19.324 1.0781 28.5 3.1406v-28.797h-326.06v211.2h180.38c-8.0547-16.895-12.574-35.805-12.574-55.777 0-35.832 14.535-68.281 38.02-91.754 23.484-23.484 55.922-38.02 91.754-38.02zm52.184 10.926c14.859 6.5352 28.258 15.77 39.566 27.094 23.484 23.484 38.02 55.934 38.02 91.754 0 35.832-14.535 68.266-38.02 91.754-23.484 23.484-55.934 38.02-91.754 38.02-35.832 0-68.266-14.535-91.754-38.02-3.8633-3.8633-7.4883-7.9688-10.84-12.289h-206.82c-6.5352 0-11.836-5.3008-11.836-11.836v-308.6c0-6.5352 5.3008-11.836 11.836-11.836h29.184c1.6914-9.7461 6.3633-18.469 13.07-25.176 8.4961-8.4961 20.23-13.766 33.203-13.766 12.957 0 24.707 5.2578 33.203 13.766 6.707 6.707 11.395 15.414 13.07 25.176h6.8906c1.6914-9.7461 6.3633-18.469 13.07-25.176 8.4961-8.4961 20.23-13.766 33.188-13.766s24.707 5.2578 33.203 13.754c6.707 6.707 11.395 15.43 13.07 25.176h6.8906c1.6914-9.7188 6.3633-18.426 13.07-25.133 8.4961-8.5391 20.246-13.809 33.203-13.809s24.707 5.2578 33.203 13.754c6.707 6.707 11.395 15.43 13.07 25.176h29.184c6.5352 0 11.836 5.3008 11.836 11.836v122.14zm22.832 43.832c-10.77-10.77-23.855-19.238-38.445-24.594l-0.42578-0.15625c-11.281-4.0781-23.457-6.3086-36.145-6.3086-29.297 0-55.836 11.879-75.016 31.07-19.18 19.18-31.07 45.719-31.07 75.016 0 29.297 11.879 55.836 31.07 75.016 19.18 19.18 45.719 31.07 75.016 31.07s55.836-11.879 75.016-31.07c19.18-19.18 31.07-45.719 31.07-75.016 0-29.297-11.879-55.836-31.07-75.016zm-287.12-177.81c-1.1641-3.2109-3.0273-6.082-5.3984-8.4375-4.207-4.207-10.031-6.8203-16.465-6.8203-6.4375 0-12.262 2.6016-16.465 6.8203-2.3594 2.3594-4.2188 5.2266-5.3984 8.4375zm55.723 0h43.703c-1.1797-3.2109-3.0273-6.082-5.3984-8.4375-4.207-4.207-10.031-6.8047-16.465-6.8047-6.4219 0-12.246 2.6016-16.453 6.8203-2.3594 2.3594-4.2188 5.2266-5.3984 8.4375zm99.41 0h43.715c-1.1797-3.2109-3.0273-6.082-5.3984-8.4375-4.207-4.207-10.031-6.8047-16.465-6.8047-6.4219 0-12.262 2.6016-16.465 6.8203-2.3711 2.3438-4.2344 5.2266-5.3984 8.4375z"/>
</svg>
