<?xml version="1.0" encoding="utf-8"?><svg xml:space="preserve" viewBox="0 0 100 100" y="0" x="0" xmlns="http://www.w3.org/2000/svg" id="Layer_1" version="1.1" width="200px" height="200px" xmlns:xlink="http://www.w3.org/1999/xlink" style="width:100%;height:100%;background-size:initial;background-repeat-y:initial;background-repeat-x:initial;background-position-y:initial;background-position-x:initial;background-origin:initial;background-color:initial;background-clip:initial;background-attachment:initial;animation-play-state:paused" ><g class="ldl-scale" style="transform-origin:50% 50%;transform:rotate(0deg) scale(0.8, 0.8);animation-play-state:paused" ><path fill="#a0c8d7" d="M38.1 15.2v4.5c0 3.1-.9 6.1-2.7 8.7L32.3 33c-2.5 3.7-3.9 8.1-3.9 12.6v39.9c0 3.9 3.1 7 7 7H50V15.2H38.1z" style="fill:rgb(169, 178, 182);animation-play-state:paused" ></path>
<path fill="#77a4bd" d="M71.6 85.5V46.7c0-5.2-1.6-10.3-4.5-14.6l-2.5-3.7c-1.7-2.6-2.7-5.6-2.7-8.7v-4.5H50v77.3h14.6c3.9 0 7-3.1 7-7z" style="fill:rgb(138, 147, 149);animation-play-state:paused" ></path>
<path fill="#acbd81" d="M37 7.5c-1.8 0-3.2 1.4-3.2 3.2V12c0 1.8 1.4 3.2 3.2 3.2h13V7.5H37z" style="fill:rgb(55, 74, 71);animation-play-state:paused" ></path>
<path fill="#849b87" d="M66.2 12v-1.3c0-1.8-1.4-3.2-3.2-3.2H50v7.7h13c1.8 0 3.2-1.4 3.2-3.2z" style="fill:rgb(8, 28, 21);animation-play-state:paused" ></path>
<path fill="#fff" d="M31.6 50.2v34c0 2.7 2 4.9 4.4 4.9h14V50.2H31.6z" style="fill:rgb(232, 249, 247);animation-play-state:paused" ></path>
<path fill="#e0e0e0" d="M68.4 84.1v-34H50V89h14c2.4.1 4.4-2.1 4.4-4.9z" style="fill:rgb(189, 226, 223);animation-play-state:paused" ></path>
<path stroke-linecap="round" stroke-width="3.241" stroke="#fff" fill="#a0c8d7" stroke-miterlimit="10" d="M34.1 42.9c-.2.9-.3 1.9-.3 2.8" style="stroke:rgb(232, 249, 247);fill:rgb(169, 178, 182);animation-play-state:paused" ></path>
<path stroke-linecap="round" stroke-width="3.241" stroke="#fff" fill="#a0c8d7" stroke-miterlimit="10" d="M40.8 29.5L37.7 34c-.6 1-1.2 2-1.7 3" style="stroke:rgb(232, 249, 247);fill:rgb(169, 178, 182);animation-play-state:paused" ></path>
<metadata xmlns:d="https://loading.io/stock/" style="animation-play-state:paused" ><d:name style="animation-play-state:paused" >milk</d:name>
<d:tags style="animation-play-state:paused" >milk,butter,drink,bottle,water,liquid,cup,glass,cook</d:tags>
<d:license style="animation-play-state:paused" >by</d:license>
<d:slug style="animation-play-state:paused" >ysf2n8</d:slug></metadata></g><!-- generated by https://loading.io/ --></svg>