<?xml version="1.0" encoding="utf-8"?><svg viewBox="0 0 100 100" xmlns="http://www.w3.org/2000/svg" width="200px" height="200px" xmlns:xlink="http://www.w3.org/1999/xlink" style="width:100%;height:100%;background-size:initial;background-repeat-y:initial;background-repeat-x:initial;background-position-y:initial;background-position-x:initial;background-origin:initial;background-color:initial;background-clip:initial;background-attachment:initial;animation-play-state:paused" ><g class="ldl-scale" style="transform-origin:50% 50%;transform:rotate(0deg) scale(0.8, 0.8);animation-play-state:paused" ><path fill="#a0c8d7" d="M94.805 68.012C94.805 79.504 88.177 85 80 85s-14.805-5.496-14.805-16.988S80 39.562 80 39.562s14.805 16.957 14.805 28.45z" style="fill:rgb(169, 178, 182);animation-play-state:paused" ></path>
<path fill="#a0c8d7" d="M34.805 68.012C34.805 79.504 28.177 85 20 85S5.195 79.504 5.195 68.012 20 39.562 20 39.562s14.805 16.957 14.805 28.45z" style="fill:rgb(169, 178, 182);animation-play-state:paused" ></path>
<path fill="#77a4bd" d="M72.808 58.829C72.808 76.533 62.596 85 50 85s-22.808-8.467-22.808-26.171S50 15 50 15s22.808 26.124 22.808 43.829z" style="fill:rgb(109, 124, 126);animation-play-state:paused" ></path>
<metadata xmlns:d="https://loading.io/stock/" style="animation-play-state:paused" ><d:name style="animation-play-state:paused" >water</d:name>


<d:tags style="animation-play-state:paused" >water,drip,drop,wet,humid,moist,fluid</d:tags>


<d:license style="animation-play-state:paused" >by</d:license>


<d:slug style="animation-play-state:paused" >ieksjt</d:slug></metadata></g><!-- generated by https://loading.io/ --></svg>