<?xml version="1.0" encoding="UTF-8"?>
<svg width="752pt" height="752pt" version="1.1" viewBox="0 0 752 752" xmlns="http://www.w3.org/2000/svg">
 <path d="m376 177.1s-139.7 180.94-139.7 258.1c0 49.91 26.625 96.031 69.852 120.99 43.227 24.957 96.48 24.957 139.71 0 43.223-24.957 69.852-71.078 69.852-120.99 0-77.16-139.71-258.1-139.71-258.1zm-38.766 187.74c-6.2188-0.023438-12.18-2.5156-16.562-6.9336-4.3828-4.4141-6.832-10.391-6.8125-16.613 0.023437-6.2188 2.5156-12.18 6.9336-16.562 4.4141-4.3828 10.391-6.832 16.613-6.8086 6.2188 0.019531 12.18 2.5156 16.562 6.9297 4.3828 4.4141 6.832 10.391 6.8086 16.613 0 6.2344-2.4805 12.215-6.8984 16.617-4.418 4.4023-10.406 6.8633-16.645 6.8398zm113.95 138.95h0.003906c-1.6562 2.2344-3.4688 4.3516-5.4297 6.3242-7.293 8.3906-18 13.016-29.109 12.566-8.6875-0.71484-16.699-4.9766-22.148-11.785-5.4492-6.8047-7.8555-15.555-6.6562-24.191 0.90234-7.9141 4.6914-15.215 10.641-20.516v-0.33984 0.003906c33.5-26.656 53.02-67.129 53.023-109.94 0 0 47.137 83.52-0.32031 147.96z"/>
</svg>
