<?xml version="1.0" encoding="UTF-8"?>
<svg width="752pt" height="752pt" version="1.1" viewBox="0 0 752 752" xmlns="http://www.w3.org/2000/svg">
 <g>
  <path d="m456.67 418.78-10.984 5.9688c5.332 1.2344 10.359 3.5273 14.793 6.7422l23.57-12.699c-4.1289-2.4219-8.8242-3.707-13.613-3.7227-4.7852-0.015625-9.4922 1.2383-13.637 3.6328z"/>
  <path d="m233.78 559.69c2.4141 0 4.5898-1.4531 5.5117-3.6797 0.92188-2.2305 0.41406-4.7969-1.293-6.5039-1.707-1.7031-4.2734-2.2148-6.5-1.2891-2.2305 0.92188-3.6836 3.0977-3.6836 5.5117 0.003906 3.2891 2.6719 5.9609 5.9648 5.9609z"/>
  <path d="m475.13 450.98 2.5703-1.3555 46.914-25.309c-5.207-4.8516-13.227-7.4062-19.609-4.2109l-36.148 19.477c2.6836 3.4414 4.8008 7.2891 6.2734 11.398z"/>
  <path d="m569.8 431.87c-3.5234-3.6641-8.1523-6.0664-13.172-6.8477-5.0195-0.78125-10.156 0.10547-14.625 2.5234l-59.078 31.875-5.4844 2.8906c0.050782 0.82031 0.082032 1.6406 0.082032 2.4727 0 3.0664-2.4844 5.5508-5.5508 5.5508-0.082031 0-0.16797 0-0.25-0.003907l-40.785-1.8438c-11.934-0.53516-23.891 0.015625-35.723 1.6523-1.4609 0.21875-2.9492-0.16016-4.1289-1.0469-1.1836-0.88281-1.9609-2.207-2.1641-3.668-0.20312-1.4609 0.1875-2.9453 1.082-4.1172 0.89453-1.1758 2.2227-1.9414 3.6875-2.1328 12.504-1.7148 25.141-2.2852 37.75-1.707l34.41 1.6875c-1.3711-6.7852-5.0547-12.883-10.422-17.254-5.3672-4.3672-12.086-6.7383-19.008-6.7031h-47.812c-9.4219-0.085938-18.707-2.2812-27.164-6.4297l-4.9297-2.5625c-12.199-5.9414-25.801-8.3984-39.309-7.1016-13.508 1.2969-26.395 6.293-37.242 14.445l-11.73 10.434c-5.625 5.0039-12.266 8.7344-19.469 10.93l23.363 76.629 32.766-20.719c0.085938-0.050781 0.17188-0.10547 0.25781-0.15234 7.1211-4 15.5-5.1367 23.434-3.1797l71.691 13.203c17.09 3.0547 34.711 0.60547 50.324-6.9883z"/>
  <path d="m273.99 575.79-44.598-146.14h-47.191l17.84 146.14zm-40.211-39.133c4.5273 0 8.8672 1.7969 12.066 4.9961 3.1992 3.2031 5 7.543 5 12.07 0 4.5234-1.8008 8.8633-5 12.066-3.1992 3.1992-7.5391 4.9961-12.066 4.9961-4.5234 0-8.8672-1.7969-12.066-4.9961-3.1992-3.2031-4.9961-7.543-4.9961-12.066 0.003906-4.5273 1.8047-8.8633 5.0039-12.062 3.1992-3.1992 7.5352-5 12.059-5.0039z"/>
  <path d="m395.33 368.58c13.008-0.0625 25.77-3.5469 37-10.109 11.234-6.5586 20.539-15.961 26.984-27.258 12.094-21.102 12.293-44.758 0.56641-64.941l-64.559-89.945-64.539 89.68c-11.754 20.344-11.527 44.125 0.63281 65.293h0.003906c13.121 22.941 37.48 37.152 63.91 37.281zm-0.52734-35.996v-0.003906c9.6367 0.019531 18.883-3.7812 25.719-10.574 6.832-6.793 10.691-16.016 10.734-25.652 0-3.0664 2.4844-5.5508 5.5469-5.5508 3.0664 0 5.5508 2.4844 5.5508 5.5508-0.042969 12.578-5.0742 24.625-13.988 33.496-8.9141 8.875-20.984 13.848-33.562 13.832-3.0664 0-5.5508-2.4844-5.5508-5.5508 0-3.0625 2.4844-5.5508 5.5508-5.5508z"/>
 </g>
</svg>
