<?xml version="1.0" encoding="utf-8"?><svg xml:space="preserve" viewBox="0 0 100 100" y="0" x="0" xmlns="http://www.w3.org/2000/svg" id="圖層_1" version="1.1" width="200px" height="200px" xmlns:xlink="http://www.w3.org/1999/xlink" style="width:100%;height:100%;background-size:initial;background-repeat-y:initial;background-repeat-x:initial;background-position-y:initial;background-position-x:initial;background-origin:initial;background-color:initial;background-clip:initial;background-attachment:initial;animation-play-state:paused" ><g class="ldl-scale" style="transform-origin:50% 50%;transform:rotate(0deg) scale(0.8, 0.8);animation-play-state:paused" ><path fill="#e0e0e0" d="M29.213 41.39C33.968 29.909 47.13 24.457 58.61 29.213l6.697-16.168a40.23 40.23 0 0 0-7.549-2.288l-4.252 9.45a29.847 29.847 0 0 0-7.012 0l-4.251-9.447a40.21 40.21 0 0 0-14.505 6.008l3.675 9.686a29.79 29.79 0 0 0-4.959 4.959l-9.689-3.676a40.163 40.163 0 0 0-6.008 14.505l9.45 4.252a29.847 29.847 0 0 0 0 7.012l-9.447 4.251a40.21 40.21 0 0 0 6.008 14.505l9.686-3.675a29.79 29.79 0 0 0 4.959 4.959l-3.676 9.689a40.163 40.163 0 0 0 6.956 3.72l6.697-16.168C29.909 66.032 24.457 52.87 29.213 41.39z" style="fill:rgb(169, 178, 182);animation-play-state:paused" ></path>
<path fill="#666" d="M29.213 41.39c-4.755 11.48.696 24.642 12.177 29.398l2.87-6.929c-7.654-3.17-11.288-11.945-8.118-19.598 3.17-7.654 11.945-11.288 19.598-8.118l2.87-6.929c-11.48-4.757-24.642.695-29.397 12.176z" style="fill:rgb(55, 74, 71);animation-play-state:paused" ></path>
<path fill="#666" d="M46.494 79.793c2.354.278 4.706.273 7.013 0l4.251 9.447a40.21 40.21 0 0 0 14.505-6.008l-3.675-9.686a29.821 29.821 0 0 0 4.959-4.958l9.689 3.676a40.163 40.163 0 0 0 6.008-14.505l-9.45-4.252a29.794 29.794 0 0 0 0-7.012l9.447-4.251a40.21 40.21 0 0 0-6.008-14.505l-9.686 3.675a29.821 29.821 0 0 0-4.958-4.959l3.676-9.689a40.163 40.163 0 0 0-6.956-3.72L58.61 29.213c11.48 4.755 16.932 17.917 12.177 29.398-4.755 11.48-17.917 16.932-29.397 12.176l-6.697 16.168a40.23 40.23 0 0 0 7.549 2.288l4.252-9.45z" style="fill:rgb(55, 74, 71);animation-play-state:paused" ></path>
<path fill="#333" d="M63.858 55.74c-3.17 7.654-11.945 11.288-19.598 8.118l-2.87 6.929c11.48 4.755 24.642-.696 29.398-12.177 4.755-11.481-.696-24.642-12.177-29.398l-2.87 6.929c7.653 3.171 11.287 11.946 8.117 19.599z" style="fill:rgb(8, 28, 21);animation-play-state:paused" ></path>
<metadata xmlns:d="https://loading.io/stock/" style="animation-play-state:paused" ><d:name style="animation-play-state:paused" >gear</d:name>
<d:tags style="animation-play-state:paused" >setup,component,part,assembly,gear,edit,gear,gear</d:tags>
<d:license style="animation-play-state:paused" >by</d:license>
<d:slug style="animation-play-state:paused" >sizal3</d:slug></metadata></g><!-- generated by https://loading.io/ --></svg>