<?xml version="1.0" encoding="UTF-8"?>
<svg width="752pt" height="752pt" version="1.1" viewBox="0 0 752 752" xmlns="http://www.w3.org/2000/svg">
 <g>
  <path d="m374.92 205.82c-7.2188 0.11328-14.395 1.1289-21.363 3.0195v9.8125c0.039062 4.1211-2.332 7.8867-6.0703 9.625-3.4883 1.5742-6.8359 3.4414-10.008 5.5781-3.5273 2.2617-8.0195 2.3672-11.648 0.27344l-8.793-4.9102c-10.801 10.227-18.566 23.238-22.434 37.602l15.242 8.5117c-1.5625 7.8398-1.5625 15.914 0 23.754l-15.238 8.5078v0.003906c3.8477 14.363 11.594 27.387 22.387 37.625l8.8359-4.9336c3.6289-2.0938 8.1211-1.9883 11.648 0.27344 3.1758 2.1367 6.5234 4.0039 10.008 5.5781 3.7383 1.7383 6.1094 5.5039 6.0703 9.625v9.8516c14.695 4 30.195 3.9883 44.883-0.042969v-9.8086c-0.035156-4.1211 2.3359-7.8867 6.0703-9.625 3.4883-1.5742 6.8359-3.4414 10.012-5.5781 3.5273-2.2617 8.0195-2.3672 11.648-0.27344l8.793 4.9102c10.801-10.227 18.566-23.238 22.434-37.602l-15.242-8.5117c1.5625-7.8398 1.5625-15.914 0-23.754l15.238-8.5117c-3.8516-14.367-11.598-27.387-22.387-37.625l-8.8359 4.9336c-3.6289 2.0938-8.1211 1.9883-11.648-0.27344-3.1758-2.1367-6.5234-4.0039-10.012-5.5781-3.7344-1.7383-6.1055-5.5039-6.0703-9.625v-9.8516c-7.6641-2.0664-15.578-3.0703-23.52-2.9805zm38.078 81.387c0 9.8164-3.8984 19.227-10.836 26.164s-16.352 10.836-26.164 10.836-19.223-3.8984-26.16-10.836-10.836-16.348-10.836-26.164c0-9.8125 3.8984-19.223 10.836-26.16s16.348-10.836 26.16-10.836 19.227 3.8984 26.164 10.836 10.836 16.348 10.836 26.16z"/>
  <path d="m479.6 398.2c0 16.348-13.254 29.602-29.598 29.602-16.348 0-29.602-13.254-29.602-29.602 0-16.344 13.254-29.598 29.602-29.598 16.344 0 29.598 13.254 29.598 29.598"/>
  <path d="m331.6 176.21c0 16.344-13.25 29.598-29.598 29.598s-29.598-13.254-29.598-29.598c0-16.348 13.25-29.602 29.598-29.602s29.598 13.254 29.598 29.602"/>
  <path d="m235.41 287.2c0.035156 44.188 20.824 85.789 56.137 112.34 35.312 26.559 81.051 34.984 123.51 22.758l-4.1055-14.223h0.003907c-37.992 10.941-78.914 3.4023-110.51-20.359-31.598-23.762-50.199-60.984-50.23-100.52-0.097656-27.832 9.1328-54.895 26.211-76.871l-11.707-9.0547c-19.094 24.566-29.406 54.816-29.305 85.926z"/>
  <path d="m376 146.61c-13.207-0.007813-26.355 1.8438-39.051 5.4961l4.1055 14.223c34.516-9.9727 71.645-4.7148 102.04 14.449 30.387 19.164 51.137 50.402 57.012 85.848 5.875 35.441-3.6797 71.703-26.258 99.648l11.504 9.3086c22.363-27.668 33.402-62.785 30.898-98.273-2.5039-35.484-18.367-68.703-44.391-92.957-26.027-24.254-60.277-37.738-95.855-37.742z"/>
  <path d="m518.41 474.05c-2.1953-4.3672-5.7695-7.8906-10.164-10.027-4.3984-2.1328-9.3789-2.7617-14.168-1.7891l-127.85 26.285-8.5195-8.5742v0.003907c-4.2188-4.9219-10.375-7.7539-16.859-7.75h-68.445v-14.801h-51.797v133.2h51.797v-14.801h29.062l53.09 27.266h0.003906c0.33594 0.17188 0.68359 0.31641 1.0391 0.4375 3.7461 1.2461 7.668 1.8789 11.613 1.875 6.0664-0.007813 12.047-1.4805 17.422-4.293l134.82-76.141c5.1445-2.7109 9.0234-7.3242 10.816-12.855 1.793-5.5312 1.3516-11.543-1.2266-16.754zm-6.0117 37.883-134.83 76.141c-5.1797 2.6875-11.207 3.2422-16.789 1.5391l-54.137-27.805c-1.0469-0.53516-2.207-0.8125-3.3828-0.81641h-30.855v-73.996h68.445c2.3438 0.042968 4.5391 1.1367 5.9844 2.9805l30.684 30.879c2.5 2.9414 2.332 7.3086-0.38281 10.051l-2.0469 2.043c-2.9219 2.8008-7.5352 2.8008-10.461 0.003906l-19.137-19.137-10.465 10.465 19.137 19.137c4.1641 4.1602 9.8086 6.5 15.695 6.5s11.531-2.3398 15.695-6.5l2.0469-2.0469c3.9688-4.0469 6.2617-9.4453 6.4062-15.113 0.14844-5.668-1.8555-11.18-5.6133-15.43l-8.5273-8.5859 117.24-25.523-0.003906 0.003906c3.2734-0.64844 6.5703 0.96875 8.0664 3.9492l10.637 21.277c1.8008 3.6992 0.27734 8.1602-3.4102 9.9844z"/>
 </g>
</svg>
